<?xml version="1.0" encoding="UTF-8" standalone="no"?>
<svg
   xmlns:svg="http://www.w3.org/2000/svg"
   xmlns="http://www.w3.org/2000/svg"
   width="800.0"
   height="240.0"

>
    <g transform="scale(0.853927130211351, -0.853927130211351)   translate(329.91925956099266,-128.81661222401317)" stroke-width="1.1710601111273924"  fill="none">
       <!-- hidden lines -->
       <g  stroke="rgb(160,160,160)" fill="none" stroke-dasharray="1.1710601111273924,1.1710601111273924" >
			<path d="M-95.70723733551417,-103.86022899010574 L93.06443393768932,-90.42739514070935 " />
			<path d="M93.06443393768932,-90.42739514070935 L95.70723733551417,-91.96257615206893 " />
			<path d="M93.06443393768932,-90.42739514070935 L93.06443393768932,105.39541000146532 " />
			<path d="M-81.5493619900239,-83.27048593718354 L-81.54674377854349,-83.10724918679233 L-81.53889204921244,-82.9438209408624 L-81.52581551413793,-82.78038253580162 L-81.50752868275733,-82.61711531929022 L-81.48405184573882,-82.45420044906136 L-81.4554110524674,-82.29181869189246 L-81.42163808214096,-82.13015022303034 L-81.38277040850883,-81.96937442627274 L-81.33885115829175,-81.80966969492792 L-81.28992906332932,-81.65121323387342 L-81.2360584065083,-81.49418086293332 L-81.17729896153148,-81.3387468217925 L-81.11371592659405,-81.18508357666397 L-81.04537985204118,-81.0333616289243 L-80.97236656208682,-80.88374932592886 L-80.89475707068087,-80.73641267421738 L-80.81263749161786,-80.59151515531667 L-80.72609894298694,-80.44921754434512 L-80.63523744606927,-80.30967773162014 L-80.54015381879489,-80.17305054746652 L-80.44095356387737,-80.03948759042005 L-80.33774675175026,-79.90913705901716 L-80.23064789843542,-79.782143587357 L-80.11977583847845,-79.65864808461869 L-80.00525359309258,-79.53878757871148 L-79.88720823365693,-79.42269506423166 L-79.76577074072095,-79.3104993548946 L-79.64107585867126,-79.20232494060593 L-79.51326194622214,-79.09829184933021 L-79.38247082289588,-78.99851551391055 L-79.2488476116628,-78.90310664398683 L-79.11254057791604,-78.81217110315475 L-78.97370096495952,-78.72580979150189 L-78.83248282619167,-78.64411853365108 L-78.68904285417115,-78.56718797243568 L-78.5435402067542,-78.49510346832406 L-78.39613633049657,-78.42794500470572 L-78.246994781516,-78.36578709914323 L-78.09628104401378,-78.30869872068939 L-77.94416234665734,-78.25674321336052 L-77.79080747702675,-78.2099782258514 L-77.63638659433181,-78.16845564756953 L-77.48107104060713,-78.13222155105976 L-77.32503315059475,-78.10131614088323 L-77.16844606052518,-78.07577370900724 L-77.0114835160094,-78.05562259675563 L-76.85431967925437,-78.04088516336189 L-76.69712893581652,-78.03157776115988 L-76.54008570110739,-78.0277107174395 L-76.38336422686601,-78.02928832298794 L-76.22713840781304,-78.03630882732857 L-76.07158158870102,-78.04876444066328 L-75.91686637197476,-78.0666413425159 L-75.76316442625546,-78.08991969706706 L-75.61064629586096,-78.1185736751636 L-75.45948121157353,-78.15257148297803 L-75.30983690286506,-78.19187539728624 L-75.16187941178809,-78.23644180732441 L-75.01577290873925,-78.28622126317852 L-74.87167951029929,-78.34115853065292 L-74.72975909935211,-78.40119265255699 L-74.59016914768223,-78.46625701634186 L-74.4530645412475,-78.53627942801228 L-74.3185974083211,-78.6111821922315 " />
			<path d="M-74.31859740832105,-78.61118219223152 L-74.23498847708731,-78.66103295335822 L-74.15253121335489,-78.71278030340022 L-74.07126221071151,-78.76640127747723 L-73.99121753540821,-78.8218720792161 L-73.91243271035361,-78.87916809131139 L-73.83494269934926,-78.93826388645023 L-73.75878189157304,-78.99913323859667 L-73.68398408631775,-79.06174913463055 L-73.61058247799127,-79.12608378633553 L-73.53860964138532,-79.19210864273123 L-73.46809751721908,-79.25979440274382 L-73.39907739796436,-79.32911102820952 L-73.33157991395828,-79.40002775720515 L-73.26563501980989,-79.47251311769992 L-73.20127198110671,-79.54653494152242 L-73.13851936142693,-79.62206037863642 " />
			<path d="M-77.87881765713587,-87.7824508146204 L-77.97551161380918,-87.76535515228181 L-78.07169723672725,-87.74611568511196 L-78.16733183981407,-87.72474095136565 L-78.26237298152992,-87.7012404369045 L-78.35677848370642,-87.67562457098725 L-78.45050645026474,-87.64790472164131 L-78.54351528580855,-87.61809319061783 L-78.63576371408367,-87.58620320793226 L-78.72721079629589,-87.55224892599308 L-78.81781594927921,-87.5162454133211 L-78.90753896350617,-87.47820864786219 L-78.99634002093237,-87.43815550989652 L-79.08417971266724,-87.39610377454723 L-79.17101905646331,-87.35207210389203 L-79.256819514016,-87.30608003868122 L-79.34154300806655,-87.25814798966574 " />
			<path d="M-79.34154300806658,-87.25814798966573 L-79.4663350734788,-87.18277954346165 L-79.58850304084292,-87.10318258858615 L-79.7079253060178,-87.01943635464042 L-79.82448299789263,-86.93162420135509 L-79.93806009670939,-86.83983353561521 L-80.04854354954716,-86.74415572445677 L-80.1558233828533,-86.64468600412131 L-80.25979281190945,-86.54152338525925 L-80.3603483471234,-86.43477055437619 L-80.4573898970411,-86.32453377162024 L-80.5508208679761,-86.21092276501241 L-80.64054826015752,-86.09405062122492 L-80.72648276030058,-85.97403367301644 L-80.80853883050769,-85.85099138343625 L-80.88663479341153,-85.72504622691254 L-80.96069291347557,-85.5963235673432 L-81.03063947437074,-85.46495153331055 L-81.09640485235158,-85.331060890544 L-81.15792358555869,-85.19478491175789 L-81.21513443917841,-85.05625924399386 L-81.2679804663951,-84.91562177359984 L-81.31640906507508,-84.77301248898 L-81.36037203012597,-84.62857334125253 L-81.39982560147944,-84.48244810295358 L-81.43473050764912,-84.33478222492825 L-81.46505200482105,-84.18572269155105 L-81.49075991143698,-84.03541787441992 L-81.51182863823672,-83.88401738466932 L-81.52823721372927,-83.73167192404962 L-81.53996930506756,-83.57853313492085 L-81.54701323430587,-83.42475344931022 L-81.5493619900239,-83.27048593718358 " />
			<path d="M69.46797502853889,-72.52421885766643 L69.4705932400193,-72.36098210727522 L69.47844496935035,-72.19755386134528 L69.49152150442485,-72.03411545628451 L69.50980833580546,-71.87084823977311 L69.53328517282397,-71.70793336954425 L69.56192596609539,-71.54555161237535 L69.59569893642183,-71.38388314351323 L69.63456661005395,-71.22310734675563 L69.67848586027104,-71.06340261541081 L69.72740795523346,-70.90494615435631 L69.78127861205448,-70.74791378341621 L69.84003805703131,-70.59247974227539 L69.90362109196873,-70.43881649714686 L69.9719571665216,-70.28709454940719 L70.04497045647597,-70.13748224641175 L70.12257994788192,-69.99014559470027 L70.20469952694492,-69.84524807579956 L70.29123807557585,-69.702950464828 L70.38209957249352,-69.56341065210303 L70.4771831997679,-69.4267834679494 L70.57638345468541,-69.29322051090294 L70.67959026681253,-69.16286997950004 L70.78668912012736,-69.03587650783989 L70.89756118008434,-68.91238100510158 L71.01208342547021,-68.79252049919437 L71.13012878490585,-68.67642798471455 L71.25156627784183,-68.56423227537749 L71.37626115989153,-68.45605786108882 L71.50407507234064,-68.3520247698131 L71.6348661956669,-68.25224843439344 L71.76848940689999,-68.15683956446972 L71.90479644064675,-68.06590402363764 L72.04363605360327,-67.97954271198478 L72.18485419237112,-67.89785145413397 L72.32829416439164,-67.82092089291856 L72.47379681180858,-67.74883638880695 L72.62120068806621,-67.68167792518861 L72.77034223704679,-67.61952001962612 L72.921055974549,-67.56243164117228 L73.07317467190545,-67.51047613384341 L73.22652954153604,-67.46371114633429 L73.38095042423097,-67.42218856805242 L73.53626597795565,-67.38595447154265 L73.69230386796804,-67.35504906136612 L73.8488909580376,-67.32950662949013 L74.00585350255338,-67.30935551723852 L74.16301733930841,-67.29461808384478 L74.32020808274626,-67.28531068164277 L74.4772513174554,-67.2814436379224 L74.63397279169678,-67.28302124347083 L74.79019861074974,-67.29004174781146 L74.94575542986176,-67.30249736114617 L75.10047064658802,-67.32037426299878 L75.25417259230733,-67.34365261754995 L75.40669072270182,-67.37230659564649 L75.55785580698925,-67.40630440346092 L75.70750011569773,-67.44560831776913 L75.85545760677469,-67.4901747278073 L76.00156410982353,-67.53995418366141 L76.1456575082635,-67.59489145113581 L76.28757791921068,-67.65492557303988 L76.42716787088055,-67.71998993682475 L76.56427247731528,-67.79001234849517 L76.69873961024169,-67.86491511271439 " />
			<path d="M76.69873961024173,-67.86491511271441 L76.78234854147549,-67.9147658738411 L76.8648058052079,-67.96651322388311 L76.94607480785128,-68.02013419796012 L77.02611948315457,-68.075604999699 L77.10490430820919,-68.13290101179429 L77.18239431921354,-68.19199680693312 L77.25855512698975,-68.25286615907957 L77.33335293224503,-68.31548205511345 L77.40675454057153,-68.37981670681842 L77.47872737717748,-68.44584156321413 L77.54923950134372,-68.51352732322673 L77.61825962059844,-68.58284394869243 L77.68575710460452,-68.65376067768806 L77.7517019987529,-68.72624603818284 L77.8160650374561,-68.80026786200533 L77.87881765713587,-68.87579329911932 " />
			<path d="M73.13851936142692,-77.0361837351033 L73.04182540475361,-77.0190880727647 L72.94563978183554,-76.99984860559485 L72.85000517874872,-76.97847387184854 L72.75496403703286,-76.95497335738739 L72.66055853485636,-76.92935749147014 L72.56683056829804,-76.9016376421242 L72.47382173275423,-76.87182611110072 L72.38157330447912,-76.83993612841515 L72.29012622226689,-76.80598184647597 L72.19952106928358,-76.76997833380399 L72.10979805505661,-76.73194156834508 L72.02099699763042,-76.69188843037941 L71.93315730589555,-76.64983669503012 L71.84631796209948,-76.60580502437492 L71.76051750454678,-76.5598129591641 L71.67579401049623,-76.51188091014863 " />
			<path d="M71.6757940104962,-76.51188091014862 L71.55100194508398,-76.43651246394454 L71.42883397771986,-76.35691550906904 L71.30941171254499,-76.27316927512331 L71.19285402067015,-76.18535712183798 L71.07927692185339,-76.0935664560981 L70.96879346901562,-75.99788864493966 L70.86151363570949,-75.8984189246042 L70.75754420665334,-75.79525630574214 L70.65698867143938,-75.68850347485908 L70.55994712152169,-75.57826669210313 L70.46651615058668,-75.4646556854953 L70.37678875840527,-75.34778354170781 L70.2908542582622,-75.22776659349933 L70.2087981880551,-75.10472430391914 L70.13070222515125,-74.97877914739543 L70.05664410508722,-74.8500564878261 L69.98669754419204,-74.71868445379344 L69.9209321662112,-74.58479381102688 L69.8594134330041,-74.44851783224078 L69.80220257938437,-74.30999216447675 L69.74935655216768,-74.16935469408273 L69.7009279534877,-74.02674540946289 L69.65696498843681,-73.88230626173542 L69.61751141708335,-73.73618102343647 L69.58260651091366,-73.58851514541114 L69.55228501374174,-73.43945561203394 L69.5265771071258,-73.28915079490281 L69.50550838032606,-73.13775030515221 L69.48909980483351,-72.98540484453251 L69.47736771349523,-72.83226605540374 L69.47032378425692,-72.6784863697931 L69.46797502853889,-72.52421885766647 " />
			<path d="M-81.5493619900239,73.38775817655619 L-81.54674377854349,73.5509949269474 L-81.53889204921244,73.71442317287733 L-81.52581551413793,73.8778615779381 L-81.50752868275733,74.0411287944495 L-81.48405184573882,74.20404366467837 L-81.4554110524674,74.36642542184727 L-81.42163808214096,74.52809389070939 L-81.38277040850883,74.68886968746699 L-81.33885115829175,74.84857441881181 L-81.28992906332932,75.0070308798663 L-81.2360584065083,75.16406325080641 L-81.17729896153148,75.31949729194723 L-81.11371592659405,75.47316053707576 L-81.04537985204118,75.62488248481543 L-80.97236656208682,75.77449478781087 L-80.89475707068087,75.92183143952235 L-80.81263749161786,76.06672895842306 L-80.72609894298694,76.20902656939461 L-80.63523744606927,76.34856638211959 L-80.54015381879489,76.48519356627321 L-80.44095356387737,76.61875652331968 L-80.33774675175026,76.74910705472257 L-80.23064789843542,76.87610052638273 L-80.11977583847845,76.99959602912104 L-80.00525359309258,77.11945653502825 L-79.88720823365693,77.23554904950807 L-79.76577074072095,77.34774475884512 L-79.64107585867126,77.4559191731338 L-79.51326194622214,77.55995226440952 L-79.38247082289588,77.65972859982918 L-79.2488476116628,77.7551374697529 L-79.11254057791604,77.84607301058497 L-78.97370096495952,77.93243432223784 L-78.83248282619167,78.01412558008865 L-78.68904285417115,78.09105614130405 L-78.5435402067542,78.16314064541567 L-78.39613633049657,78.23029910903401 L-78.246994781516,78.2924570145965 L-78.09628104401378,78.34954539305033 L-77.94416234665734,78.4015009003792 L-77.79080747702675,78.44826588788833 L-77.63638659433181,78.4897884661702 L-77.48107104060713,78.52602256267997 L-77.32503315059475,78.5569279728565 L-77.16844606052518,78.58247040473249 L-77.0114835160094,78.6026215169841 L-76.85431967925437,78.61735895037783 L-76.69712893581652,78.62666635257985 L-76.54008570110739,78.63053339630022 L-76.38336422686601,78.62895579075179 L-76.22713840781304,78.62193528641116 L-76.07158158870102,78.60947967307645 L-75.91686637197476,78.59160277122383 L-75.76316442625546,78.56832441667267 L-75.61064629586096,78.53967043857612 L-75.45948121157353,78.5056726307617 L-75.30983690286506,78.46636871645349 L-75.16187941178809,78.42180230641532 L-75.01577290873925,78.37202285056121 L-74.87167951029929,78.31708558308681 L-74.72975909935211,78.25705146118274 L-74.59016914768223,78.19198709739787 L-74.4530645412475,78.12196468572745 L-74.3185974083211,78.04706192150823 " />
			<path d="M-74.31859740832105,78.0470619215082 L-74.2349884770873,77.99721116038151 L-74.15253121335489,77.9454638103395 L-74.07126221071151,77.8918428362625 L-73.99121753540821,77.83637203452362 L-73.9124327103536,77.77907602242833 L-73.83494269934924,77.7199802272895 L-73.75878189157304,77.65911087514304 L-73.68398408631775,77.59649497910917 L-73.61058247799126,77.5321603274042 L-73.5386096413853,77.46613547100849 L-73.46809751721906,77.39844971099589 L-73.39907739796435,77.32913308553019 L-73.33157991395827,77.25821635653456 L-73.26563501980988,77.18573099603978 L-73.20127198110669,77.11170917221729 L-73.13851936142692,77.0361837351033 " />
			<path d="M-77.87881765713587,68.87579329911932 L-77.97551161380918,68.89288896145791 L-78.07169723672725,68.91212842862777 L-78.16733183981407,68.93350316237408 L-78.26237298152992,68.95700367683523 L-78.35677848370642,68.98261954275247 L-78.45050645026474,69.01033939209842 L-78.54351528580855,69.0401509231219 L-78.63576371408367,69.07204090580747 L-78.72721079629589,69.10599518774664 L-78.81781594927921,69.14199870041863 L-78.90753896350617,69.18003546587754 L-78.99634002093237,69.22008860384321 L-79.08417971266724,69.2621403391925 L-79.17101905646331,69.3061720098477 L-79.256819514016,69.35216407505851 L-79.34154300806655,69.40009612407398 " />
			<path d="M-79.34154300806658,69.400096124074 L-79.4663350734788,69.47546457027808 L-79.58850304084292,69.55506152515358 L-79.7079253060178,69.63880775909931 L-79.82448299789263,69.72661991238463 L-79.93806009670939,69.81841057812451 L-80.04854354954716,69.91408838928295 L-80.1558233828533,70.01355810961842 L-80.25979281190945,70.11672072848047 L-80.3603483471234,70.22347355936354 L-80.4573898970411,70.33371034211949 L-80.5508208679761,70.44732134872731 L-80.64054826015752,70.5641934925148 L-80.72648276030058,70.68421044072329 L-80.80853883050769,70.80725273030347 L-80.88663479341153,70.93319788682719 L-80.96069291347557,71.06192054639652 L-81.03063947437074,71.19329258042917 L-81.09640485235158,71.32718322319573 L-81.15792358555869,71.46345920198183 L-81.21513443917841,71.60198486974586 L-81.2679804663951,71.74262234013989 L-81.31640906507508,71.88523162475973 L-81.36037203012597,72.0296707724872 L-81.39982560147944,72.17579601078614 L-81.43473050764912,72.32346188881148 L-81.46505200482105,72.47252142218868 L-81.49075991143698,72.6228262393198 L-81.51182863823672,72.7742267290704 L-81.52823721372927,72.9265721896901 L-81.53996930506756,73.07971097881888 L-81.54701323430587,73.23349066442951 L-81.5493619900239,73.38775817655615 " />
			<path d="M69.46797502853889,84.1340252560733 L69.4705932400193,84.2972620064645 L69.47844496935035,84.46069025239444 L69.49152150442485,84.62412865745522 L69.50980833580546,84.78739587396662 L69.53328517282397,84.95031074419548 L69.56192596609539,85.11269250136438 L69.59569893642183,85.2743609702265 L69.63456661005395,85.4351367669841 L69.67848586027104,85.59484149832892 L69.72740795523346,85.75329795938342 L69.78127861205448,85.91033033032352 L69.84003805703131,86.06576437146434 L69.90362109196873,86.21942761659287 L69.9719571665216,86.37114956433254 L70.04497045647597,86.52076186732798 L70.12257994788192,86.66809851903946 L70.20469952694492,86.81299603794017 L70.29123807557585,86.95529364891172 L70.38209957249352,87.0948334616367 L70.4771831997679,87.23146064579032 L70.57638345468541,87.36502360283679 L70.67959026681253,87.49537413423968 L70.78668912012736,87.62236760589984 L70.89756118008434,87.74586310863815 L71.01208342547021,87.86572361454536 L71.13012878490585,87.98181612902518 L71.25156627784183,88.09401183836223 L71.37626115989153,88.2021862526509 L71.50407507234064,88.30621934392663 L71.6348661956669,88.40599567934629 L71.76848940689999,88.50140454927 L71.90479644064675,88.59234009010208 L72.04363605360327,88.67870140175495 L72.18485419237112,88.76039265960576 L72.32829416439164,88.83732322082116 L72.47379681180858,88.90940772493278 L72.62120068806621,88.97656618855112 L72.77034223704679,89.0387240941136 L72.921055974549,89.09581247256745 L73.07317467190545,89.14776797989632 L73.22652954153604,89.19453296740544 L73.38095042423097,89.23605554568731 L73.53626597795565,89.27228964219708 L73.69230386796804,89.30319505237361 L73.8488909580376,89.3287374842496 L74.00585350255338,89.34888859650121 L74.16301733930841,89.36362602989495 L74.32020808274626,89.37293343209696 L74.4772513174554,89.37680047581733 L74.63397279169678,89.3752228702689 L74.79019861074974,89.36820236592827 L74.94575542986176,89.35574675259356 L75.10047064658802,89.33786985074094 L75.25417259230733,89.31459149618978 L75.40669072270182,89.28593751809323 L75.55785580698925,89.2519397102788 L75.70750011569773,89.2126357959706 L75.85545760677469,89.16806938593243 L76.00156410982353,89.11828993007832 L76.1456575082635,89.06335266260392 L76.28757791921068,89.00331854069985 L76.42716787088055,88.93825417691498 L76.56427247731528,88.86823176524456 L76.69873961024169,88.79332900102534 " />
			<path d="M76.69873961024173,88.79332900102531 L76.78234854147549,88.74347823989862 L76.8648058052079,88.69173088985661 L76.94607480785128,88.63810991577961 L77.02611948315457,88.58263911404073 L77.10490430820919,88.52534310194544 L77.18239431921354,88.46624730680661 L77.25855512698975,88.40537795466015 L77.33335293224503,88.34276205862628 L77.40675454057153,88.27842740692131 L77.47872737717748,88.2124025505256 L77.54923950134372,88.144716790513 L77.61825962059844,88.0754001650473 L77.68575710460452,88.00448343605167 L77.7517019987529,87.93199807555689 L77.8160650374561,87.8579762517344 L77.87881765713587,87.7824508146204 " />
			<path d="M73.13851936142693,79.62206037863642 L73.04182540475362,79.63915604097501 L72.94563978183555,79.65839550814488 L72.85000517874873,79.67977024189119 L72.75496403703288,79.70327075635234 L72.66055853485638,79.72888662226958 L72.56683056829806,79.75660647161553 L72.47382173275423,79.78641800263901 L72.38157330447912,79.81830798532458 L72.2901262222669,79.85226226726375 L72.19952106928358,79.88826577993574 L72.10979805505661,79.92630254539463 L72.02099699763042,79.9663556833603 L71.93315730589555,80.00840741870961 L71.84631796209949,80.05243908936481 L71.76051750454678,80.09843115457562 L71.67579401049623,80.1463632035911 " />
			<path d="M71.6757940104962,80.14636320359111 L71.55100194508398,80.22173164979519 L71.42883397771986,80.30132860467069 L71.30941171254499,80.38507483861642 L71.19285402067015,80.47288699190175 L71.07927692185339,80.56467765764162 L70.96879346901562,80.66035546880006 L70.86151363570949,80.75982518913553 L70.75754420665334,80.86298780799758 L70.65698867143938,80.96974063888065 L70.55994712152169,81.0799774216366 L70.46651615058668,81.19358842824442 L70.37678875840527,81.31046057203191 L70.2908542582622,81.4304775202404 L70.2087981880551,81.55351980982059 L70.13070222515125,81.6794649663443 L70.05664410508722,81.80818762591363 L69.98669754419204,81.93955965994628 L69.9209321662112,82.07345030271284 L69.8594134330041,82.20972628149894 L69.80220257938437,82.34825194926297 L69.74935655216768,82.488889419657 L69.7009279534877,82.63149870427684 L69.65696498843681,82.7759378520043 L69.61751141708335,82.92206309030325 L69.58260651091366,83.06972896832859 L69.55228501374174,83.21878850170579 L69.5265771071258,83.36909331883692 L69.50550838032606,83.52049380858752 L69.48909980483351,83.67283926920722 L69.47736771349523,83.82597805833599 L69.47032378425692,83.97975774394662 L69.46797502853889,84.13402525607326 " />
			<path d="M-71.6757940104962,-80.14636320359111 L-74.31859740832105,-78.61118219223152 " />
			<path d="M-76.69873961024173,-88.79332900102533 L-79.34154300806658,-87.25814798966574 " />
			<path d="M79.34154300806658,-69.400096124074 L76.69873961024173,-67.86491511271441 " />
			<path d="M74.31859740832105,-78.04706192150822 L71.6757940104962,-76.51188091014863 " />
			<path d="M-71.6757940104962,76.51188091014863 L-74.31859740832105,78.04706192150822 " />
			<path d="M-76.69873961024173,67.86491511271441 L-79.34154300806658,69.400096124074 " />
			<path d="M79.34154300806658,87.25814798966574 L76.69873961024173,88.79332900102533 " />
			<path d="M74.31859740832105,78.61118219223152 L71.6757940104962,80.14636320359111 " />

       </g>

       <!-- solid lines -->
       <g  stroke="rgb(0,0,0)" fill="none">
			<path d="M-95.70723733551417,-103.86022899010574 L-93.06443393768932,-105.39541000146532 " />
			<path d="M-93.06443393768932,-105.39541000146532 L-93.06443393768932,90.42739514070935 " />
			<path d="M-95.70723733551417,91.96257615206893 L-93.06443393768932,90.42739514070935 " />
			<path d="M-95.70723733551417,-103.86022899010574 L-95.70723733551417,91.96257615206893 " />
			<path d="M-93.06443393768932,-105.39541000146532 L95.70723733551417,-91.96257615206893 " />
			<path d="M-93.06443393768932,90.42739514070935 L95.70723733551417,103.86022899010574 " />
			<path d="M95.70723733551417,-91.96257615206893 L95.70723733551417,103.86022899010574 " />
			<path d="M-78.90655859219905,-84.80566694854312 L-78.90394038071864,-84.64243019815191 L-78.89608865138759,-84.47900195222198 L-78.88301211631308,-84.3155635471612 L-78.86472528493248,-84.1522963306498 L-78.84124844791397,-83.98938146042094 L-78.81260765464255,-83.82699970325204 L-78.77883468431611,-83.66533123438992 L-78.73996701068398,-83.50455543763232 L-78.6960477604669,-83.3448507062875 L-78.64712566550448,-83.186394245233 L-78.59325500868346,-83.0293618742929 L-78.53449556370663,-82.87392783315208 L-78.4709125287692,-82.72026458802355 L-78.40257645421633,-82.56854264028388 L-78.32956316426197,-82.41893033728844 L-78.25195367285602,-82.27159368557696 L-78.16983409379301,-82.12669616667625 L-78.08329554516209,-81.9843985557047 L-77.99243404824442,-81.84485874297972 L-77.89735042097004,-81.7082315588261 L-77.79815016605252,-81.57466860177963 L-77.69494335392541,-81.44431807037674 L-77.58784450061057,-81.31732459871658 L-77.4769724406536,-81.19382909597827 L-77.36245019526773,-81.07396859007106 L-77.24440483583209,-80.95787607559124 L-77.1229673428961,-80.84568036625419 L-76.99827246084641,-80.73750595196552 L-76.8704585483973,-80.63347286068979 L-76.73966742507103,-80.53369652527013 L-76.60604421383795,-80.43828765534641 L-76.46973718009119,-80.34735211451434 L-76.33089756713467,-80.26099080286147 L-76.18967942836682,-80.17929954501066 L-76.0462394563463,-80.10236898379526 L-75.90073680892935,-80.03028447968364 L-75.75333293267173,-79.9631260160653 L-75.60419138369114,-79.90096811050282 L-75.45347764618893,-79.84387973204898 L-75.30135894883249,-79.7919242247201 L-75.1480040792019,-79.74515923721098 L-74.99358319650696,-79.70363665892911 L-74.83826764278228,-79.66740256241934 L-74.6822297527699,-79.63649715224281 L-74.52564266270033,-79.61095472036682 L-74.36868011818456,-79.59080360811521 L-74.21151628142952,-79.57606617472148 L-74.05432553799167,-79.56675877251946 L-73.89728230328254,-79.56289172879909 L-73.74056082904116,-79.56446933434752 L-73.5843350099882,-79.57148983868815 L-73.42877819087617,-79.58394545202286 L-73.27406297414991,-79.60182235387548 L-73.12036102843061,-79.62510070842664 L-72.96784289803611,-79.65375468652319 L-72.81667781374868,-79.68775249433762 L-72.66703350504021,-79.72705640864582 L-72.51907601396324,-79.771622818684 L-72.3729695109144,-79.8214022745381 L-72.22887611247444,-79.8763395420125 L-72.08695570152726,-79.93637366391657 L-71.94736574985738,-80.00143802770144 L-71.81026114342265,-80.07146043937186 L-71.67579401049625,-80.14636320359108 " />
			<path d="M-71.6757940104962,-80.14636320359111 L-71.5784953292905,-80.20462468624464 L-71.48276807447675,-80.26545537879234 L-71.38866990857377,-80.32881863909957 L-71.29625751279816,-80.39467629950765 L-71.2055865529216,-80.46298868982453 L-71.11671164573994,-80.53371466122063 L-71.02968632617397,-80.60681161101542 L-70.94456301502217,-80.68223550833959 L-70.86139298738416,-80.75994092065768 L-70.78022634177469,-80.83988104113492 L-70.70111196994606,-80.92200771683187 L-70.62409752743756,-81.00627147771 L-70.54922940486962,-81.09262156643061 L-70.47655269999979,-81.18100596892906 L-70.4061111905575,-81.2713714457462 L-70.33794730787406,-81.36366356409779 L-70.27210211132359,-81.45782673066275 L-70.2086152635904,-81.55380422507054 L-70.14752500677763,-81.65153823406733 L-70.08886813937166,-81.75096988634064 L-70.0326799940761,-81.85203928798111 L-69.97899441652868,-81.95468555856044 L-69.92784374491386,-82.05884686780341 L-69.87925879048358,-82.16446047283219 L-69.83326881899768,-82.27146275596023 L-69.78990153309533,-82.37978926301327 L-69.74918305560792,-82.48937474215403 L-69.71113791382373,-82.60015318318756 L-69.67578902471358,-82.71205785732325 L-69.6431576811265,-82.82502135736978 L-69.6132635389637,-82.9389756383387 L-69.58612460533857,-83.05385205843218 L-69.56175722772997,-83.16958142039027 L-69.54017608413501,-83.28609401317271 L-69.52139417422762,-83.40331965395032 L-69.50542281152804,-83.52118773038042 L-69.49227161658791,-83.63962724314115 L-69.48194851119536,-83.75856684869875 L-69.47445971360304,-83.87793490228229 L-69.4698097347826,-83.99765950103973 L-69.46800137570742,-84.1176685273496 L-69.46903572566536,-84.23788969226183 L-69.47291216160272,-84.35825057904208 L-69.47962834849942,-84.47867868679272 L-69.48918024077561,-84.59910147412474 L-69.50156208472855,-84.71944640285393 L-69.51676642199843,-84.83964098169524 L-69.53478409406101,-84.95961280992873 L-69.55560424774436,-85.07928962101111 L-69.5792143417664,-85.19859932610638 L-69.60560015428936,-85.31747005750947 L-69.6347457914864,-85.43583021193665 L-69.66663369711547,-85.55360849365665 L-69.70124466309463,-85.67073395743661 L-69.73855784107211,-85.78713605127672 L-69.77855075498476,-85.90274465890822 L-69.82119931459667,-86.01749014202873 L-69.86647783001024,-86.13130338224988 L-69.91435902714089,-86.24411582273146 L-69.96481406414583,-86.35585950947768 L-70.01781254879742,-86.46646713227001 L-70.07332255679025,-86.57587206521237 L-70.13131065097114,-86.68400840686405 L-70.19174190148048,-86.79081101993631 L-70.25457990679266,-86.89621557052868 L-70.3197868156429,-87.0001585668812 L-70.38732334982757,-87.10257739761951 L-70.45714882786383,-87.20341036946971 L-70.52922118949466,-87.30259674441992 L-70.60349702102438,-87.40007677630669 L-70.6799315814694,-87.49579174680382 L-70.75847882950862,-87.5896840007921 L-70.83909145121685,-87.68169698108859 L-70.92172088856509,-87.77177526251455 L-71.00631736867001,-87.85986458528147 L-71.09282993377525,-87.94591188767521 L-71.1812064719465,-88.02986533801833 L-71.27139374846178,-88.11167436589153 L-71.36333743787803,-88.19128969259549 L-71.45698215675475,-88.2686633608344 L-71.55227149701489,-88.3437487636037 L-71.64914805992296,-88.41650067226438 L-71.74755349065995,-88.48687526378704 L-71.84742851347396,-88.55483014714922 L-71.94871296738584,-88.62032438887019 L-72.0513458424278,-88.6833185376677 L-72.15526531639364,-88.74377464822203 L-72.260408792078,-88.80165630403279 L-72.36671293498273,-88.85692863935485 L-72.47411371146708,-88.90955836020018 L-72.58254642731931,-88.95951376439288 L-72.69194576672592,-89.00676476066543 L-72.80224583161556,-89.05128288678449 L-72.91338018135355,-89.09304132669556 L-73.02528187276314,-89.13201492667585 L-73.13788350044976,-89.16818021048606 L-73.25111723740328,-89.20151539351154 L-73.36491487585468,-89.2320003958845 L-73.47920786836171,-89.25961685457943 L-73.59392736909938,-89.28434813447427 L-73.70900427533007,-89.30617933837074 L-73.8243692690285,-89.32509731596797 L-73.93995285863619,-89.34109067178362 L-74.05568542092077,-89.35414977201818 L-74.17149724291419,-89.36426675035798 L-74.28731856390539,-89.37143551271359 L-74.40307961746142,-89.37565174089059 L-74.51871067345223,-89.3769128951908 L-74.63414208005341,-89.37521821594203 L-74.74930430570186,-89.37056872395569 L-74.86412798097906,-89.36296721991187 L-74.97854394039656,-89.3524182826724 L-75.0924832640587,-89.33892826652261 L-75.20587731917735,-89.32250529734381 L-75.31865780141379,-89.30315926771853 L-75.43075677602266,-89.28090183097163 L-75.5421067187733,-89.25574639415075 L-75.65264055662385,-89.22770810995038 L-75.76229170812351,-89.19680386758455 L-75.87099412351874,-89.16305228261325 L-75.97868232453915,-89.12647368572921 L-76.08529144383915,-89.08709011051144 L-76.19075726407168,-89.044925280153 L-76.29501625657022,-89.00000459317106 L-76.3980056196162,-88.95235510810775 L-76.49966331626834,-88.90200552723117 L-76.59992811173139,-88.84898617924611 L-76.6987396102417,-88.79332900102533 " />
			<path d="M-76.69873961024173,-88.79332900102531 L-76.82353167565395,-88.71796055482123 L-76.94569964301807,-88.63836359994573 L-77.06512190819295,-88.554617366 L-77.18167960006778,-88.46680521271468 L-77.29525669888454,-88.3750145469748 L-77.40574015172231,-88.27933673581636 L-77.51301998502845,-88.1798670154809 L-77.6169894140846,-88.07670439661884 L-77.71754494929856,-87.96995156573577 L-77.81458649921625,-87.85971478297982 L-77.90801747015125,-87.746103776372 L-77.99774486233267,-87.6292316325845 L-78.08367936247573,-87.50921468437602 L-78.16573543268284,-87.38617239479584 L-78.24383139558668,-87.26022723827212 L-78.31788951565072,-87.13150457870279 L-78.3878360765459,-87.00013254467014 L-78.45360145452673,-86.86624190190358 L-78.51512018773384,-86.72996592311748 L-78.57233104135356,-86.59144025535345 L-78.62517706857025,-86.45080278495942 L-78.67360566725023,-86.30819350033958 L-78.71756863230112,-86.16375435261212 L-78.75702220365459,-86.01762911431317 L-78.79192710982427,-85.86996323628783 L-78.8222486069962,-85.72090370291063 L-78.84795651361213,-85.5705988857795 L-78.86902524041187,-85.4191983960289 L-78.88543381590442,-85.2668529354092 L-78.89716590724271,-85.11371414628043 L-78.90420983648102,-84.9599344606698 L-78.90655859219905,-84.80566694854316 " />
			<path d="M72.11077842636374,-74.05939986902601 L72.11339663784415,-73.8961631186348 L72.1212483671752,-73.73273487270487 L72.1343249022497,-73.5692964676441 L72.15261173363031,-73.4060292511327 L72.17608857064882,-73.24311438090383 L72.20472936392024,-73.08073262373493 L72.23850233424668,-72.91906415487281 L72.2773700078788,-72.75828835811521 L72.32128925809589,-72.59858362677039 L72.37021135305831,-72.4401271657159 L72.42408200987933,-72.28309479477579 L72.48284145485616,-72.12766075363497 L72.54642448979358,-71.97399750850644 L72.61476056434645,-71.82227556076677 L72.68777385430081,-71.67266325777133 L72.76538334570677,-71.52532660605985 L72.84750292476977,-71.38042908715914 L72.9340414734007,-71.23813147618759 L73.02490297031837,-71.09859166346261 L73.11998659759274,-70.96196447930899 L73.21918685251026,-70.82840152226252 L73.32239366463737,-70.69805099085963 L73.42949251795221,-70.57105751919947 L73.54036457790919,-70.44756201646116 L73.65488682329506,-70.32770151055395 L73.7729321827307,-70.21160899607413 L73.89436967566668,-70.09941328673708 L74.01906455771638,-69.9912388724484 L74.14687847016549,-69.88720578117268 L74.27766959349175,-69.78742944575302 L74.41129280472484,-69.6920205758293 L74.5475998384716,-69.60108503499723 L74.68643945142811,-69.51472372334436 L74.82765759019597,-69.43303246549355 L74.97109756221649,-69.35610190427815 L75.11660020963343,-69.28401740016653 L75.26400408589106,-69.21685893654819 L75.41314563487164,-69.1547010309857 L75.56385937237386,-69.09761265253186 L75.7159780697303,-69.045657145203 L75.86933293936089,-68.99889215769387 L76.02375382205582,-68.957369579412 L76.1790693757805,-68.92113548290223 L76.33510726579289,-68.8902300727257 L76.49169435586245,-68.86468764084971 L76.64865690037823,-68.8445365285981 L76.80582073713326,-68.82979909520436 L76.96301148057111,-68.82049169300235 L77.12005471528025,-68.81662464928198 L77.27677618952163,-68.81820225483041 L77.43300200857459,-68.82522275917104 L77.58855882768661,-68.83767837250575 L77.74327404441287,-68.85555527435837 L77.89697599013218,-68.87883362890953 L78.04949412052667,-68.90748760700608 L78.2006592048141,-68.9414854148205 L78.35030351352258,-68.98078932912871 L78.49826100459954,-69.02535573916688 L78.64436750764838,-69.07513519502099 L78.78846090608835,-69.13007246249539 L78.93038131703553,-69.19010658439946 L79.0699712687054,-69.25517094818433 L79.20707587514013,-69.32519335985475 L79.34154300806654,-69.40009612407397 " />
			<path d="M79.34154300806658,-69.400096124074 L79.43884168927228,-69.45835760672753 L79.53456894408603,-69.51918829927523 L79.62866710998901,-69.58255155958246 L79.72107950576462,-69.64840921999054 L79.81175046564118,-69.71672161030742 L79.90062537282284,-69.78744758170352 L79.98765069238881,-69.8605445314983 L80.07277400354062,-69.93596842882248 L80.15594403117862,-70.01367384114057 L80.23711067678809,-70.0936139616178 L80.31622504861673,-70.17574063731476 L80.39323949112523,-70.26000439819289 L80.46810761369316,-70.3463544869135 L80.540784318563,-70.43473888941195 L80.61122582800529,-70.52510436622909 L80.67938971068872,-70.61739648458068 L80.7452349072392,-70.71155965114563 L80.80872175497238,-70.80753714555343 L80.86981201178516,-70.90527115455022 L80.92846887919113,-71.00470280682353 L80.98465702448668,-71.105772208464 L81.0383426020341,-71.20841847904333 L81.08949327364893,-71.3125797882863 L81.13807822807921,-71.41819339331508 L81.1840681995651,-71.52519567644312 L81.22743548546745,-71.63352218349615 L81.26815396295487,-71.74310766263692 L81.30619910473905,-71.85388610367045 L81.3415479938492,-71.96579077780613 L81.37417933743629,-72.07875427785267 L81.40407347959909,-72.1927085588216 L81.43121241322422,-72.30758497891507 L81.45557979083281,-72.42331434087316 L81.47716093442777,-72.5398269336556 L81.49594284433516,-72.65705257443321 L81.51191420703475,-72.77492065086331 L81.52506540197487,-72.89336016362404 L81.53538850736743,-73.01229976918164 L81.54287730495975,-73.13166782276518 L81.54752728378018,-73.25139242152262 L81.54933564285537,-73.37140144783248 L81.54830129289742,-73.49162261274472 L81.54442485696006,-73.61198349952497 L81.53770867006337,-73.73241160727561 L81.52815677778717,-73.85283439460763 L81.51577493383424,-73.97317932333682 L81.50057059656436,-74.09337390217813 L81.48255292450177,-74.21334573041162 L81.46173277081843,-74.333022541494 L81.43812267679638,-74.45233224658926 L81.41173686427342,-74.57120297799236 L81.38259122707639,-74.68956313241954 L81.35070332144731,-74.80734141413954 L81.31609235546816,-74.9244668779195 L81.27877917749068,-75.04086897175961 L81.23878626357802,-75.15647757939111 L81.19613770396612,-75.27122306251162 L81.15085918855254,-75.38503630273277 L81.1029779914219,-75.49784874321435 L81.05252295441696,-75.60959242996057 L80.99952446976536,-75.7202000527529 L80.94401446177254,-75.82960498569525 L80.88602636759164,-75.93774132734694 L80.8255951170823,-76.0445439404192 L80.76275711177013,-76.14994849101157 L80.69755020291989,-76.25389148736409 L80.63001366873522,-76.3563103181024 L80.56018819069895,-76.4571432899526 L80.48811582906812,-76.5563296649028 L80.4138399975384,-76.65380969678958 L80.33740543709338,-76.7495246672867 L80.25885818905417,-76.843416921275 L80.17824556734594,-76.93542990157148 L80.0956161299977,-77.02550818299744 L80.01101964989277,-77.11359750576436 L79.92450708478754,-77.1996448081581 L79.83613054661629,-77.28359825850121 L79.74594327010101,-77.36540728637442 L79.65399958068475,-77.44502261307838 L79.56035486180804,-77.52239628131728 L79.4650655215479,-77.59748168408659 L79.36818895863982,-77.67023359274727 L79.26978352790283,-77.74060818426993 L79.16990850508883,-77.80856306763211 L79.06862405117694,-77.87405730935308 L78.96599117613498,-77.93705145815059 L78.86207170216915,-77.99750756870492 L78.75692822648479,-78.05538922451568 L78.65062408358006,-78.11066155983774 L78.5432233070957,-78.16329128068307 L78.43479059124347,-78.21324668487577 L78.32539125183686,-78.26049768114832 L78.21509118694722,-78.30501580726738 L78.10395683720924,-78.34677424717844 L77.99205514579964,-78.38574784715874 L77.87945351811302,-78.42191313096895 L77.7662197811595,-78.45524831399443 L77.6524221427081,-78.48573331636739 L77.53812915020107,-78.51334977506232 L77.42340964946341,-78.53808105495716 L77.30833274323271,-78.55991225885363 L77.19296774953429,-78.57883023645086 L77.0773841599266,-78.59482359226651 L76.96165159764202,-78.60788269250106 L76.8458397756486,-78.61799967084087 L76.7300184546574,-78.62516843319648 L76.61425740110137,-78.62938466137348 L76.49862634511055,-78.63064581567369 L76.38319493850938,-78.62895113642492 L76.26803271286093,-78.62430164443857 L76.15320903758372,-78.61670014039476 L76.03879307816622,-78.60615120315529 L75.92485375450408,-78.5926611870055 L75.81145969938544,-78.5762382178267 L75.69867921714899,-78.55689218820142 L75.58658024254012,-78.53463475145452 L75.47523029978949,-78.50947931463364 L75.36469646193893,-78.48144103043327 L75.25504531043927,-78.45053678806744 L75.14634289504404,-78.41678520309614 L75.03865469402363,-78.3802066062121 L74.93204557472363,-78.34082303099433 L74.8265797544911,-78.29865820063588 L74.72232076199256,-78.25373751365395 L74.61933139894658,-78.20608802859064 L74.51767370229445,-78.15573844771406 L74.4174089068314,-78.102719099729 L74.31859740832108,-78.04706192150822 " />
			<path d="M74.31859740832105,-78.0470619215082 L74.19380534290883,-77.97169347530412 L74.07163737554471,-77.89209652042862 L73.95221511036983,-77.80835028648289 L73.835657418495,-77.72053813319756 L73.72208031967824,-77.62874746745769 L73.61159686684047,-77.53306965629925 L73.50431703353433,-77.43359993596378 L73.40034760447818,-77.33043731710173 L73.29979206926423,-77.22368448621866 L73.20275051934654,-77.11344770346271 L73.10931954841153,-76.99983669685489 L73.01959215623012,-76.8829645530674 L72.93365765608705,-76.76294760485891 L72.85160158587995,-76.63990531527872 L72.7735056229761,-76.51396015875501 L72.69944750291207,-76.38523749918568 L72.62950094201689,-76.25386546515303 L72.56373556403605,-76.11997482238647 L72.50221683082894,-75.98369884360037 L72.44500597720922,-75.84517317583634 L72.39215994999253,-75.70453570544231 L72.34373135131256,-75.56192642082247 L72.29976838626166,-75.417487273095 L72.2603148149082,-75.27136203479606 L72.22540990873851,-75.12369615677072 L72.19508841156659,-74.97463662339352 L72.16938050495065,-74.82433180626239 L72.14831177815091,-74.6729313165118 L72.13190320265836,-74.5205858558921 L72.12017111132008,-74.36744706676332 L72.11312718208177,-74.21366738115269 L72.11077842636374,-74.05939986902605 " />
			<path d="M-78.90655859219905,71.8525771651966 L-78.90394038071864,72.01581391558781 L-78.89608865138759,72.17924216151775 L-78.88301211631308,72.34268056657852 L-78.86472528493248,72.50594778308992 L-78.84124844791397,72.66886265331878 L-78.81260765464255,72.83124441048768 L-78.77883468431611,72.9929128793498 L-78.73996701068398,73.15368867610741 L-78.6960477604669,73.31339340745222 L-78.64712566550448,73.47184986850672 L-78.59325500868346,73.62888223944682 L-78.53449556370663,73.78431628058765 L-78.4709125287692,73.93797952571617 L-78.40257645421633,74.08970147345585 L-78.32956316426197,74.23931377645128 L-78.25195367285602,74.38665042816277 L-78.16983409379301,74.53154794706347 L-78.08329554516209,74.67384555803503 L-77.99243404824442,74.81338537076 L-77.89735042097004,74.95001255491363 L-77.79815016605252,75.08357551196009 L-77.69494335392541,75.21392604336299 L-77.58784450061057,75.34091951502315 L-77.4769724406536,75.46441501776145 L-77.36245019526773,75.58427552366867 L-77.24440483583209,75.70036803814848 L-77.1229673428961,75.81256374748554 L-76.99827246084641,75.92073816177421 L-76.8704585483973,76.02477125304993 L-76.73966742507103,76.1245475884696 L-76.60604421383795,76.21995645839331 L-76.46973718009119,76.31089199922539 L-76.33089756713467,76.39725331087826 L-76.18967942836682,76.47894456872906 L-76.0462394563463,76.55587512994447 L-75.90073680892935,76.62795963405608 L-75.75333293267173,76.69511809767442 L-75.60419138369114,76.75727600323691 L-75.45347764618893,76.81436438169075 L-75.30135894883249,76.86631988901962 L-75.1480040792019,76.91308487652874 L-74.99358319650696,76.95460745481061 L-74.83826764278228,76.99084155132039 L-74.6822297527699,77.02174696149692 L-74.52564266270033,77.0472893933729 L-74.36868011818456,77.06744050562452 L-74.21151628142952,77.08217793901825 L-74.05432553799167,77.09148534122026 L-73.89728230328254,77.09535238494064 L-73.74056082904116,77.0937747793922 L-73.5843350099882,77.08675427505158 L-73.42877819087617,77.07429866171687 L-73.27406297414991,77.05642175986425 L-73.12036102843061,77.03314340531308 L-72.96784289803611,77.00448942721654 L-72.81667781374868,76.97049161940211 L-72.66703350504021,76.9311877050939 L-72.51907601396324,76.88662129505573 L-72.3729695109144,76.83684183920163 L-72.22887611247444,76.78190457172722 L-72.08695570152726,76.72187044982316 L-71.94736574985738,76.65680608603829 L-71.81026114342265,76.58678367436787 L-71.67579401049625,76.51188091014865 " />
			<path d="M-71.6757940104962,76.51188091014862 L-71.5784953292905,76.45361942749508 L-71.48276807447675,76.39278873494739 L-71.38866990857377,76.32942547464016 L-71.29625751279816,76.26356781423208 L-71.2055865529216,76.1952554239152 L-71.11671164573994,76.1245294525191 L-71.02968632617397,76.05143250272431 L-70.94456301502217,75.97600860540014 L-70.86139298738416,75.89830319308204 L-70.78022634177469,75.81836307260481 L-70.70111196994606,75.73623639690786 L-70.62409752743756,75.65197263602973 L-70.54922940486962,75.56562254730912 L-70.47655269999979,75.47723814481067 L-70.4061111905575,75.38687266799353 L-70.33794730787406,75.29458054964194 L-70.27210211132359,75.20041738307698 L-70.2086152635904,75.10443988866919 L-70.14752500677763,75.0067058796724 L-70.08886813937166,74.90727422739909 L-70.0326799940761,74.80620482575861 L-69.97899441652868,74.70355855517928 L-69.92784374491386,74.59939724593632 L-69.87925879048358,74.49378364090754 L-69.83326881899768,74.3867813577795 L-69.78990153309533,74.27845485072646 L-69.74918305560792,74.1688693715857 L-69.71113791382373,74.05809093055217 L-69.67578902471358,73.94618625641648 L-69.6431576811265,73.83322275636995 L-69.6132635389637,73.71926847540102 L-69.58612460533857,73.60439205530754 L-69.56175722772997,73.48866269334945 L-69.54017608413501,73.37215010056701 L-69.52139417422762,73.25492445978941 L-69.50542281152804,73.13705638335931 L-69.49227161658791,73.01861687059858 L-69.48194851119536,72.89967726504098 L-69.47445971360304,72.78030921145744 L-69.4698097347826,72.66058461269999 L-69.46800137570742,72.54057558639013 L-69.46903572566536,72.4203544214779 L-69.47291216160272,72.29999353469765 L-69.47962834849942,72.17956542694701 L-69.48918024077561,72.05914263961499 L-69.50156208472855,71.9387977108858 L-69.51676642199843,71.81860313204449 L-69.53478409406101,71.698631303811 L-69.55560424774436,71.57895449272861 L-69.5792143417664,71.45964478763335 L-69.60560015428936,71.34077405623026 L-69.6347457914864,71.22241390180308 L-69.66663369711547,71.10463562008307 L-69.70124466309463,70.98751015630312 L-69.73855784107211,70.87110806246301 L-69.77855075498476,70.75549945483151 L-69.82119931459667,70.64075397171099 L-69.86647783001024,70.52694073148984 L-69.91435902714089,70.41412829100827 L-69.96481406414583,70.30238460426204 L-70.01781254879742,70.19177698146972 L-70.07332255679025,70.08237204852736 L-70.13131065097114,69.97423570687567 L-70.19174190148048,69.86743309380341 L-70.25457990679266,69.76202854321104 L-70.3197868156429,69.65808554685853 L-70.38732334982757,69.55566671612021 L-70.45714882786383,69.45483374427002 L-70.52922118949466,69.35564736931981 L-70.60349702102438,69.25816733743304 L-70.6799315814694,69.16245236693591 L-70.75847882950862,69.06856011294762 L-70.83909145121685,68.97654713265113 L-70.92172088856509,68.88646885122517 L-71.00631736867001,68.79837952845826 L-71.09282993377525,68.71233222606452 L-71.1812064719465,68.6283787757214 L-71.27139374846178,68.5465697478482 L-71.36333743787803,68.46695442114424 L-71.45698215675475,68.38958075290533 L-71.55227149701489,68.31449535013603 L-71.64914805992296,68.24174344147535 L-71.74755349065995,68.17136884995269 L-71.84742851347396,68.10341396659051 L-71.94871296738584,68.03791972486954 L-72.0513458424278,67.97492557607202 L-72.15526531639364,67.9144694655177 L-72.260408792078,67.85658780970694 L-72.36671293498273,67.80131547438488 L-72.47411371146708,67.74868575353955 L-72.58254642731931,67.69873034934685 L-72.69194576672592,67.6514793530743 L-72.80224583161556,67.60696122695524 L-72.91338018135355,67.56520278704417 L-73.02528187276314,67.52622918706388 L-73.13788350044976,67.49006390325367 L-73.25111723740328,67.45672872022818 L-73.36491487585468,67.42624371785523 L-73.47920786836171,67.39862725916029 L-73.59392736909938,67.37389597926546 L-73.70900427533007,67.35206477536899 L-73.8243692690285,67.33314679777176 L-73.93995285863619,67.31715344195611 L-74.05568542092077,67.30409434172155 L-74.17149724291419,67.29397736338174 L-74.28731856390539,67.28680860102614 L-74.40307961746142,67.28259237284914 L-74.51871067345223,67.28133121854893 L-74.63414208005341,67.2830258977977 L-74.74930430570186,67.28767538978404 L-74.86412798097906,67.29527689382786 L-74.97854394039656,67.30582583106732 L-75.0924832640587,67.31931584721711 L-75.20587731917735,67.33573881639592 L-75.31865780141379,67.3550848460212 L-75.43075677602266,67.3773422827681 L-75.5421067187733,67.40249771958898 L-75.65264055662385,67.43053600378934 L-75.76229170812351,67.46144024615518 L-75.87099412351874,67.49519183112648 L-75.97868232453915,67.53177042801052 L-76.08529144383915,67.57115400322829 L-76.19075726407168,67.61331883358673 L-76.29501625657022,67.65823952056867 L-76.3980056196162,67.70588900563197 L-76.49966331626834,67.75623858650856 L-76.59992811173139,67.80925793449362 L-76.6987396102417,67.8649151127144 " />
			<path d="M-76.69873961024173,67.86491511271441 L-76.82353167565395,67.9402835589185 L-76.94569964301807,68.01988051379399 L-77.06512190819295,68.10362674773972 L-77.18167960006778,68.19143890102505 L-77.29525669888454,68.28322956676493 L-77.40574015172231,68.37890737792337 L-77.51301998502845,68.47837709825883 L-77.6169894140846,68.58153971712089 L-77.71754494929856,68.68829254800396 L-77.81458649921625,68.7985293307599 L-77.90801747015125,68.91214033736773 L-77.99774486233267,69.02901248115522 L-78.08367936247573,69.14902942936371 L-78.16573543268284,69.27207171894389 L-78.24383139558668,69.3980168754676 L-78.31788951565072,69.52673953503694 L-78.3878360765459,69.65811156906959 L-78.45360145452673,69.79200221183615 L-78.51512018773384,69.92827819062225 L-78.57233104135356,70.06680385838628 L-78.62517706857025,70.2074413287803 L-78.67360566725023,70.35005061340014 L-78.71756863230112,70.49448976112761 L-78.75702220365459,70.64061499942656 L-78.79192710982427,70.7882808774519 L-78.8222486069962,70.9373404108291 L-78.84795651361213,71.08764522796022 L-78.86902524041187,71.23904571771082 L-78.88543381590442,71.39139117833052 L-78.89716590724271,71.5445299674593 L-78.90420983648102,71.69830965306993 L-78.90655859219905,71.85257716519656 " />
			<path d="M72.11077842636374,82.59884424471372 L72.11339663784415,82.76208099510492 L72.1212483671752,82.92550924103486 L72.1343249022497,83.08894764609563 L72.15261173363031,83.25221486260703 L72.17608857064882,83.4151297328359 L72.20472936392024,83.5775114900048 L72.23850233424668,83.73917995886691 L72.2773700078788,83.89995575562452 L72.32128925809589,84.05966048696934 L72.37021135305831,84.21811694802383 L72.42408200987933,84.37514931896393 L72.48284145485616,84.53058336010476 L72.54642448979358,84.68424660523328 L72.61476056434645,84.83596855297296 L72.68777385430081,84.9855808559684 L72.76538334570677,85.13291750767988 L72.84750292476977,85.27781502658058 L72.9340414734007,85.42011263755214 L73.02490297031837,85.55965245027711 L73.11998659759274,85.69627963443074 L73.21918685251026,85.8298425914772 L73.32239366463737,85.9601931228801 L73.42949251795221,86.08718659454026 L73.54036457790919,86.21068209727856 L73.65488682329506,86.33054260318578 L73.7729321827307,86.4466351176656 L73.89436967566668,86.55883082700265 L74.01906455771638,86.66700524129132 L74.14687847016549,86.77103833256704 L74.27766959349175,86.8708146679867 L74.41129280472484,86.96622353791042 L74.5475998384716,87.0571590787425 L74.68643945142811,87.14352039039537 L74.82765759019597,87.22521164824617 L74.97109756221649,87.30214220946158 L75.11660020963343,87.3742267135732 L75.26400408589106,87.44138517719153 L75.41314563487164,87.50354308275402 L75.56385937237386,87.56063146120786 L75.7159780697303,87.61258696853673 L75.86933293936089,87.65935195604585 L76.02375382205582,87.70087453432772 L76.1790693757805,87.7371086308375 L76.33510726579289,87.76801404101403 L76.49169435586245,87.79355647289002 L76.64865690037823,87.81370758514163 L76.80582073713326,87.82844501853536 L76.96301148057111,87.83775242073737 L77.12005471528025,87.84161946445775 L77.27677618952163,87.84004185890932 L77.43300200857459,87.83302135456869 L77.58855882768661,87.82056574123398 L77.74327404441287,87.80268883938136 L77.89697599013218,87.7794104848302 L78.04949412052667,87.75075650673365 L78.2006592048141,87.71675869891922 L78.35030351352258,87.67745478461102 L78.49826100459954,87.63288837457284 L78.64436750764838,87.58310891871874 L78.78846090608835,87.52817165124434 L78.93038131703553,87.46813752934027 L79.0699712687054,87.4030731655554 L79.20707587514013,87.33305075388498 L79.34154300806654,87.25814798966576 " />
			<path d="M79.34154300806658,87.25814798966573 L79.43884168927228,87.1998865070122 L79.53456894408603,87.1390558144645 L79.62866710998901,87.07569255415727 L79.72107950576462,87.00983489374919 L79.81175046564118,86.94152250343231 L79.90062537282284,86.87079653203621 L79.98765069238881,86.79769958224142 L80.07277400354062,86.72227568491725 L80.15594403117862,86.64457027259915 L80.23711067678809,86.56463015212192 L80.31622504861673,86.48250347642497 L80.39323949112523,86.39823971554684 L80.46810761369316,86.31188962682623 L80.540784318563,86.22350522432778 L80.61122582800529,86.13313974751064 L80.67938971068872,86.04084762915905 L80.7452349072392,85.94668446259409 L80.80872175497238,85.8507069681863 L80.86981201178516,85.7529729591895 L80.92846887919113,85.6535413069162 L80.98465702448668,85.55247190527572 L81.0383426020341,85.4498256346964 L81.08949327364893,85.34566432545343 L81.13807822807921,85.24005072042465 L81.1840681995651,85.13304843729661 L81.22743548546745,85.02472193024357 L81.26815396295487,84.91513645110281 L81.30619910473905,84.80435801006928 L81.3415479938492,84.69245333593359 L81.37417933743629,84.57948983588706 L81.40407347959909,84.46553555491813 L81.43121241322422,84.35065913482465 L81.45557979083281,84.23492977286656 L81.47716093442777,84.11841718008412 L81.49594284433516,84.00119153930652 L81.51191420703475,83.88332346287642 L81.52506540197487,83.76488395011569 L81.53538850736743,83.64594434455809 L81.54287730495975,83.52657629097455 L81.54752728378018,83.4068516922171 L81.54933564285537,83.28684266590724 L81.54830129289742,83.166621500995 L81.54442485696006,83.04626061421476 L81.53770867006337,82.92583250646412 L81.52815677778717,82.8054097191321 L81.51577493383424,82.6850647904029 L81.50057059656436,82.5648702115616 L81.48255292450177,82.44489838332811 L81.46173277081843,82.32522157224572 L81.43812267679638,82.20591186715046 L81.41173686427342,82.08704113574737 L81.38259122707639,81.96868098132019 L81.35070332144731,81.85090269960018 L81.31609235546816,81.73377723582023 L81.27877917749068,81.61737514198012 L81.23878626357802,81.50176653434862 L81.19613770396612,81.3870210512281 L81.15085918855254,81.27320781100696 L81.1029779914219,81.16039537052538 L81.05252295441696,81.04865168377916 L80.99952446976536,80.93804406098683 L80.94401446177254,80.82863912804447 L80.88602636759164,80.72050278639279 L80.8255951170823,80.61370017332052 L80.76275711177013,80.50829562272816 L80.69755020291989,80.40435262637564 L80.63001366873522,80.30193379563732 L80.56018819069895,80.20110082378713 L80.48811582906812,80.10191444883692 L80.4138399975384,80.00443441695015 L80.33740543709338,79.90871944645302 L80.25885818905417,79.81482719246473 L80.17824556734594,79.72281421216825 L80.0956161299977,79.63273593074229 L80.01101964989277,79.54464660797537 L79.92450708478754,79.45859930558163 L79.83613054661629,79.37464585523851 L79.74594327010101,79.2928368273653 L79.65399958068475,79.21322150066135 L79.56035486180804,79.13584783242244 L79.4650655215479,79.06076242965314 L79.36818895863982,78.98801052099246 L79.26978352790283,78.9176359294698 L79.16990850508883,78.84968104610762 L79.06862405117694,78.78418680438665 L78.96599117613498,78.72119265558914 L78.86207170216915,78.66073654503481 L78.75692822648479,78.60285488922405 L78.65062408358006,78.54758255390199 L78.5432233070957,78.49495283305666 L78.43479059124347,78.44499742886396 L78.32539125183686,78.3977464325914 L78.21509118694722,78.35322830647235 L78.10395683720924,78.31146986656128 L77.99205514579964,78.27249626658099 L77.87945351811302,78.23633098277078 L77.7662197811595,78.2029957997453 L77.6524221427081,78.17251079737234 L77.53812915020107,78.1448943386774 L77.42340964946341,78.12016305878257 L77.30833274323271,78.0983318548861 L77.19296774953429,78.07941387728887 L77.0773841599266,78.06342052147322 L76.96165159764202,78.05036142123866 L76.8458397756486,78.04024444289885 L76.7300184546574,78.03307568054325 L76.61425740110137,78.02885945236625 L76.49862634511055,78.02759829806604 L76.38319493850938,78.02929297731481 L76.26803271286093,78.03394246930115 L76.15320903758372,78.04154397334497 L76.03879307816622,78.05209291058443 L75.92485375450408,78.06558292673422 L75.81145969938544,78.08200589591303 L75.69867921714899,78.10135192553831 L75.58658024254012,78.12360936228521 L75.47523029978949,78.14876479910609 L75.36469646193893,78.17680308330645 L75.25504531043927,78.20770732567229 L75.14634289504404,78.24145891064359 L75.03865469402363,78.27803750752763 L74.93204557472363,78.3174210827454 L74.8265797544911,78.35958591310384 L74.72232076199256,78.40450660008578 L74.61933139894658,78.45215608514908 L74.51767370229445,78.50250566602567 L74.4174089068314,78.55552501401073 L74.31859740832108,78.61118219223151 " />
			<path d="M74.31859740832105,78.61118219223152 L74.19380534290883,78.6865506384356 L74.07163737554471,78.7661475933111 L73.95221511036983,78.84989382725684 L73.835657418495,78.93770598054216 L73.72208031967824,79.02949664628204 L73.61159686684047,79.12517445744048 L73.50431703353433,79.22464417777594 L73.40034760447818,79.327806796638 L73.29979206926423,79.43455962752107 L73.20275051934654,79.54479641027702 L73.10931954841153,79.65840741688484 L73.01959215623012,79.77527956067233 L72.93365765608705,79.89529650888082 L72.85160158587995,80.018338798461 L72.7735056229761,80.14428395498472 L72.69944750291207,80.27300661455405 L72.62950094201689,80.4043786485867 L72.56373556403605,80.53826929135326 L72.50221683082894,80.67454527013936 L72.44500597720922,80.81307093790339 L72.39215994999253,80.95370840829742 L72.34373135131256,81.09631769291725 L72.29976838626166,81.24075684064472 L72.2603148149082,81.38688207894367 L72.22540990873851,81.534547956969 L72.19508841156659,81.6836074903462 L72.16938050495065,81.83391230747733 L72.14831177815091,81.98531279722793 L72.13190320265836,82.13765825784763 L72.12017111132008,82.29079704697641 L72.11312718208177,82.44457673258704 L72.11077842636374,82.59884424471367 " />
			<path d="M-95.70723733551417,91.96257615206893 L93.06443393768932,105.39541000146532 " />
			<path d="M93.06443393768932,105.39541000146532 L95.70723733551417,103.86022899010574 " />
			<path d="M-73.13851936142693,-79.62206037863642 L-73.02793807369426,-79.76406179020944 L-72.92300763014141,-79.91077544864152 L-72.82388398157845,-80.06198330364047 L-72.73071444858043,-80.2174606255028 L-72.64363750253516,-80.3769763391137 L-72.5627825598428,-80.54029336737801 L-72.48826978957327,-80.70716898357139 L-72.42020993486733,-80.87735517208807 L-72.35870414834679,-81.0505989970492 L-72.30384384177839,-81.22664297822388 L-72.25571055021486,-81.40522547370404 L-72.21437581081506,-81.58608106876459 L-72.17990105652326,-81.76894097033085 L-72.15233752476567,-81.95353340646699 L-72.13172618129977,-82.13958403029172 L-72.11809765932983,-82.32681632772093 L-72.11147221397884,-82.51495202843137 L-72.1118596921848,-82.70371151943436 L-72.1192595180658,-82.89281426064518 L-72.13366069377604,-83.08197920183026 L-72.15504181585108,-83.27092520031249 L-72.18337110701833,-83.45937143881409 L-72.21860646342542,-83.64703784281572 L-72.26069551721619,-83.83364549681171 L-72.30957571436143,-84.01891705884286 L-72.36517440762853,-84.20257717269031 L-72.42740896455204,-84.38435287711847 L-72.49618689024453,-84.5639740115582 L-72.5714059648653,-84.74117361762767 L-72.65295439554262,-84.915688335894 L-72.74071098252368,-85.08725879728608 L-72.83454529930533,-85.25563000857673 L-72.93431788647793,-85.42055173136133 L-73.03988045899415,-85.58177885396982 L-73.15107612655468,-85.73907175575906 L-73.26773962678345,-85.89219666324426 L-73.38969757084543,-86.04092599754033 L-73.51676870114254,-86.18503871259641 L-73.64876416070408,-86.32432062372133 L-73.78548777387175,-86.4585647259113 L-73.92673633786185,-86.58757150150711 L-74.07229992477144,-86.71114921672327 L-74.22196219357956,-86.82911420660862 L-74.37550071167973,-86.94129114801476 L-74.53268728546624,-87.04751332016657 L-74.6932882994822,-87.1476228524478 L-74.85706506362605,-87.24147095903304 L-75.02377416790002,-87.32891816001784 L-75.1931678441734,-87.4098344887179 L-75.36499433442312,-87.48409968482957 L-75.53899826490411,-87.55160337316431 L-75.71492102569358,-87.61224522769164 L-75.89250115504487,-87.66593512064678 L-76.07147472797985,-87.71259325648124 L-76.25157574854225,-87.75215029045737 L-76.43253654512894,-87.78454743171066 L-76.61408816831154,-87.80973653062648 L-76.79596079055726,-87.82768015040145 L-76.97788410725474,-87.83835162268328 L-77.15958773844902,-87.84173508720593 L-77.3408016306884,-87.83782551536177 L-77.52125645838603,-87.8266287176751 L-77.7006840240999,-87.80816133516652 L-77.87881765713584,-87.78245081462042 " />
			<path d="M77.87881765713588,-68.87579329911932 L77.98939894486855,-69.01779471069234 L78.09432938842139,-69.16450836912442 L78.19345303698435,-69.31571622412339 L78.28662256998237,-69.4711935459857 L78.37369951602764,-69.6307092595966 L78.45455445872,-69.79402628786093 L78.52906722898953,-69.96090190405431 L78.59712708369547,-70.13108809257098 L78.65863287021601,-70.30433191753212 L78.7134931767844,-70.4803758987068 L78.76162646834793,-70.65895839418695 L78.80296120774773,-70.83981398924749 L78.83743596203954,-71.02267389081376 L78.86499949379713,-71.2072663269499 L78.88561083726302,-71.39331695077463 L78.89923935923295,-71.58054924820385 L78.90586480458394,-71.76868494891428 L78.90547732637799,-71.95744443991727 L78.89807750049698,-72.1465471811281 L78.88367632478673,-72.33571212231317 L78.86229520271169,-72.52465812079541 L78.83396591154445,-72.713104359297 L78.79873055513735,-72.90077076329862 L78.75664150134659,-73.08737841729463 L78.70776130420136,-73.27264997932576 L78.65216261093425,-73.45631009317322 L78.58992805401074,-73.63808579760138 L78.52115012831824,-73.8177069320411 L78.44593105369746,-73.99490653811057 L78.36438262302015,-74.1694212563769 L78.27662603603909,-74.34099171776899 L78.18279171925745,-74.50936292905963 L78.08301913208484,-74.67428465184423 L77.97745655956864,-74.83551177445273 L77.86626089200809,-74.99280467624195 L77.74959739177933,-75.14592958372717 L77.62763944771734,-75.29465891802323 L77.50056831742025,-75.43877163307931 L77.36857285785871,-75.57805354420422 L77.23184924469103,-75.7122976463942 L77.09060068070093,-75.84130442199 L76.94503709379133,-75.96488213720616 L76.79537482498323,-76.08284712709151 L76.64183630688304,-76.19502406849764 L76.48464973309653,-76.30124624064946 L76.32404871908058,-76.40135577293069 L76.16027195493672,-76.49520387951593 L75.99356285066276,-76.58265108050072 L75.82416917438938,-76.6635674092008 L75.65234268413965,-76.73783260531246 L75.47833875365866,-76.8053362936472 L75.3024159928692,-76.86597814817453 L75.12483586351792,-76.91966804112967 L74.94586229058294,-76.96632617696413 L74.76576127002052,-77.00588321094025 L74.58480047343383,-77.03828035219355 L74.40324885025125,-77.06346945110937 L74.22137622800552,-77.08141307088434 L74.03945291130805,-77.09208454316617 L73.85774928011377,-77.09546800768882 L73.67653538787438,-77.09155843584466 L73.49608056017675,-77.080361638158 L73.31665299446288,-77.0618942556494 L73.13851936142694,-77.03618373510331 " />
			<path d="M-73.1385193614269,77.0361837351033 L-73.02793807369423,76.89418232353027 L-72.9230076301414,76.7474686650982 L-72.82388398157843,76.59626081009922 L-72.73071444858041,76.44078348823692 L-72.64363750253514,76.28126777462602 L-72.56278255984279,76.11795074636169 L-72.48826978957325,75.9510751301683 L-72.42020993486732,75.78088894165164 L-72.35870414834677,75.60764511669049 L-72.30384384177839,75.43160113551582 L-72.25571055021486,75.25301864003566 L-72.21437581081506,75.07216304497513 L-72.17990105652325,74.88930314340885 L-72.15233752476566,74.70471070727271 L-72.13172618129977,74.51866008344798 L-72.11809765932983,74.33142778601876 L-72.11147221397884,74.14329208530833 L-72.1118596921848,73.95453259430535 L-72.1192595180658,73.76542985309452 L-72.13366069377605,73.57626491190945 L-72.15504181585109,73.38731891342721 L-72.18337110701833,73.19887267492561 L-72.21860646342543,73.01120627092399 L-72.26069551721619,72.82459861692799 L-72.30957571436143,72.63932705489685 L-72.36517440762853,72.4556669410494 L-72.42740896455204,72.27389123662124 L-72.49618689024454,72.09427010218151 L-72.57140596486532,71.91707049611205 L-72.65295439554264,71.74255577784571 L-72.7407109825237,71.57098531645363 L-72.83454529930533,71.40261410516298 L-72.93431788647794,71.23769238237838 L-73.03988045899415,71.07646525976989 L-73.1510761265547,70.91917235798067 L-73.26773962678345,70.76604745049545 L-73.38969757084544,70.61731811619939 L-73.51676870114254,70.4732054011433 L-73.64876416070408,70.33392349001839 L-73.78548777387175,70.19967938782841 L-73.92673633786185,70.07067261223261 L-74.07229992477146,69.94709489701646 L-74.22196219357956,69.8291299071311 L-74.37550071167975,69.71695296572497 L-74.53268728546625,69.61073079357315 L-74.6932882994822,69.51062126129193 L-74.85706506362607,69.41677315470669 L-75.02377416790003,69.32932595372189 L-75.1931678441734,69.24840962502182 L-75.36499433442313,69.17414442891015 L-75.53899826490412,69.10664074057541 L-75.71492102569358,69.04599888604808 L-75.89250115504487,68.99230899309295 L-76.07147472797985,68.94565085725849 L-76.25157574854227,68.90609382328236 L-76.43253654512895,68.87369668202906 L-76.61408816831154,68.84850758311325 L-76.79596079055726,68.83056396333828 L-76.97788410725474,68.81989249105645 L-77.15958773844902,68.8165090265338 L-77.3408016306884,68.82041859837796 L-77.52125645838603,68.83161539606462 L-77.7006840240999,68.85008277857321 L-77.87881765713584,68.87579329911931 " />
			<path d="M77.87881765713588,87.7824508146204 L77.98939894486855,87.64044940304738 L78.09432938842139,87.49373574461531 L78.19345303698435,87.34252788961633 L78.28662256998237,87.18705056775403 L78.37369951602764,87.02753485414313 L78.45455445872,86.8642178258788 L78.52906722898953,86.69734220968542 L78.59712708369547,86.52715602116875 L78.65863287021601,86.35391219620762 L78.7134931767844,86.17786821503293 L78.76162646834793,85.99928571955277 L78.80296120774773,85.81843012449224 L78.83743596203952,85.63557022292598 L78.86499949379713,85.45097778678984 L78.88561083726302,85.2649271629651 L78.89923935923295,85.07769486553588 L78.90586480458394,84.88955916482546 L78.90547732637799,84.70079967382246 L78.89807750049698,84.51169693261163 L78.88367632478673,84.32253199142656 L78.86229520271169,84.13358599294433 L78.83396591154445,83.94513975444274 L78.79873055513735,83.7574733504411 L78.75664150134659,83.57086569644511 L78.70776130420136,83.38559413441396 L78.65216261093425,83.20193402056651 L78.58992805401074,83.02015831613835 L78.52115012831825,82.84053718169862 L78.44593105369748,82.66333757562916 L78.36438262302015,82.48882285736282 L78.27662603603909,82.31725239597074 L78.18279171925745,82.1488811846801 L78.08301913208486,81.98395946189551 L77.97745655956864,81.82273233928701 L77.8662608920081,81.66543943749778 L77.74959739177933,81.51231453001257 L77.62763944771736,81.36358519571651 L77.50056831742025,81.21947248066041 L77.36857285785871,81.0801905695355 L77.23184924469103,80.94594646734554 L77.09060068070093,80.81693969174972 L76.94503709379134,80.69336197653357 L76.79537482498323,80.57539698664822 L76.64183630688305,80.46322004524208 L76.48464973309655,80.35699787309026 L76.3240487190806,80.25688834080904 L76.16027195493673,80.1630402342238 L75.99356285066277,80.075593033239 L75.8241691743894,79.99467670453893 L75.65234268413968,79.92041150842726 L75.47833875365868,79.85290782009253 L75.30241599286921,79.7922659655652 L75.12483586351793,79.73857607261006 L74.94586229058295,79.69191793677561 L74.76576127002055,79.65236090279947 L74.58480047343386,79.61996376154617 L74.40324885025126,79.59477466263037 L74.22137622800554,79.57683104285539 L74.03945291130806,79.56615957057356 L73.85774928011378,79.5627761060509 L73.67653538787441,79.56668567789507 L73.49608056017676,79.57788247558173 L73.3166529944629,79.5963498580903 L73.13851936142696,79.62206037863642 " />

       </g>
    </g>
    <g transform="translate(20,210.0)" stroke="rgb(0,0,255)">
        <line x1="30" y1="-30" x2="75" y2="-33" stroke-width="3" stroke="#000000" />
         <text x="80" y="-30" style="stroke:#000000">X </text>

        <line x1="30" y1="-30" x2="30" y2="-75" stroke-width="3" stroke="#000000" />
         <text x="25" y="-85" style="stroke:#000000">Y </text>

        <line x1="30" y1="-30" x2="58" y2="-15" stroke-width="3" stroke="#000000" />
         <text x="65" y="-5" style="stroke:#000000">Z </text>
        <!--
            <line x1="0" y1="0" x2="0.853927130211351" y2="0" stroke-width="3" />
            <text x="0" y="20" style="stroke:#000000">1  mm </text>
        -->
    </g>
</svg>
