<?xml version="1.0" encoding="UTF-8" standalone="no"?>
<svg
   xmlns:svg="http://www.w3.org/2000/svg"
   xmlns="http://www.w3.org/2000/svg"
   width="800.0"
   height="240.0"

>
    <g transform="scale(0.852375176732239, -0.852375176732239)   translate(330.6760491555429,-129.05115376741531)" stroke-width="1.1731923069765031"  fill="none">
       <!-- hidden lines -->
       <g  stroke="rgb(160,160,160)" fill="none" stroke-dasharray="1.1731923069765031,1.1731923069765031" >
			<path d="M-96.03758776024227,-103.6683313636858 L92.7340835129612,-90.2354975142894 " />
			<path d="M92.7340835129612,-90.2354975142894 L96.03758776024227,-92.15447377848889 " />
			<path d="M92.7340835129612,-90.2354975142894 L92.7340835129612,105.58730762788527 " />
			<path d="M-53.56396172377149,-51.69024246202793 L-53.561343512291074,-51.527005711636725 L-53.55349178296003,-51.36357746570679 L-53.54041524788552,-51.200139060646016 L-53.522128416504906,-51.036871844134616 L-53.498651579486406,-50.873956973905756 L-53.470010786214985,-50.71157521673685 L-53.436237815888546,-50.549906747874736 L-53.39737014225643,-50.38913095111713 L-53.35345089203934,-50.22942621977232 L-53.30452879707691,-50.070969758717816 L-53.250658140255894,-49.91393738777772 L-53.191898695279065,-49.758503346636886 L-53.12831566034164,-49.604840101508366 L-53.05997958578877,-49.45311815376869 L-52.98696629583441,-49.30350585077325 L-52.90935680442846,-49.15616919906177 L-52.82723722536545,-49.01127168016106 L-52.74069867673453,-48.86897406918951 L-52.64983717981686,-48.72943425646454 L-52.55475355254248,-48.59280707231091 L-52.45555329762496,-48.45924411526445 L-52.352346485497854,-48.32889358386155 L-52.245247632183,-48.20190011220139 L-52.13437557222604,-48.07840460946308 L-52.01985332684017,-47.95854410355588 L-51.90180796740452,-47.842451589076056 L-51.78037047446855,-47.730255879739005 L-51.65567559241884,-47.622081465450336 L-51.52786167996973,-47.51804837417461 L-51.39707055664346,-47.41827203875494 L-51.26344734541038,-47.322863168831226 L-51.12714031166362,-47.231927627999156 L-50.98830069870711,-47.145566316346276 L-50.84708255993926,-47.063875058495476 L-50.703642587918736,-46.986944497280064 L-50.55813994050179,-46.91485999316846 L-50.41073606424416,-46.84770152955011 L-50.261594515263575,-46.78554362398763 L-50.11088077776137,-46.72845524553378 L-49.95876208040493,-46.67649973820491 L-49.805407210774334,-46.62973475069579 L-49.65098632807939,-46.58821217241392 L-49.49567077435472,-46.55197807590415 L-49.33963288434233,-46.52107266572762 L-49.18304579427278,-46.495530233851625 L-49.026083249756994,-46.475379121600014 L-48.868919413001954,-46.460641688206294 L-48.71172866956411,-46.45133428600427 L-48.554685434854974,-46.447467242283906 L-48.39796396061359,-46.44904484783234 L-48.24173814156063,-46.456065352172956 L-48.08618132244862,-46.46852096550767 L-47.93146610572235,-46.48639786736029 L-47.777764160003045,-46.509676221911455 L-47.62524602960855,-46.538330200008 L-47.47408094532112,-46.57232800782242 L-47.324436636612646,-46.611631922130634 L-47.17647914553569,-46.6561983321688 L-47.03037264248684,-46.705977788022906 L-46.886279244046875,-46.760915055497314 L-46.7443588330997,-46.82094917740138 L-46.60476888142982,-46.88601354118625 L-46.467664274995094,-46.95603595285668 L-46.333197142068684,-47.03093871707589 " />
			<path d="M-46.33319714206865,-47.03093871707591 L-46.22767345438794,-47.09428768945989 L-46.124006437239956,-47.16065908283834 L-46.02226963886859,-47.23000580895155 L-45.922535238092784,-47.30227866864182 L-45.82487399309807,-47.37742638675857 L-45.72935519123605,-47.4553956485364 L-45.63604659986736,-47.536131137420064 L-45.545014418283,-47.61957557430968 L-45.4563232307382,-47.70566975819837 L-45.37003596063205,-47.79435260817332 L-45.28621382586551,-47.885561206750666 L-45.20491629540933,-47.97923084451328 L-45.12620104711289,-48.07529506601996 L-45.05012392678364,-48.17368571695326 L-44.97673890856645,-48.274332992472736 L-44.90609805665075,-48.377165486739074 " />
			<path d="M-49.479737579950985,-56.25065400904645 L-49.60406004832147,-56.24023404289091 L-49.727843755084876,-56.22634775799749 L-49.85100087988613,-56.20900500621583 L-49.97344404690886,-56.18821809164203 L-50.09508638686561,-56.164001761889196 L-50.21584159862867,-56.13637319762459 L-50.335624010457764,-56.1053520003805 L-50.45434864078129,-56.070960178647596 L-50.57193125848788,-56.03322213226069 L-50.68828844268548,-55.992164635087846 L-50.80333764188571,-55.94781681603524 L-50.916997232571305,-55.90021013838119 L-51.02918657710526,-55.849378377453995 L-51.139826080940516,-55.795357596669525 L-51.248837249089604,-55.73818612194541 L-51.356142741814146,-55.67790451451014 " />
			<path d="M-51.35614274181416,-55.67790451451013 L-51.4809348072264,-55.602536068306044 L-51.60310277459051,-55.52293911343054 L-51.722525039765394,-55.43919287948481 L-51.83908273164022,-55.35138072619948 L-51.95265983045697,-55.25959006045961 L-52.06314328329474,-55.16391224930116 L-52.17042311660089,-55.06444252896571 L-52.274392545657044,-54.961279910103656 L-52.374948080871,-54.85452707922058 L-52.47198963078869,-54.74429029646464 L-52.56542060172369,-54.630679289856815 L-52.65514799390511,-54.51380714606932 L-52.74108249404817,-54.39379019786083 L-52.82313856425527,-54.27074790828064 L-52.90123452715912,-54.144802751756934 L-52.97529264722316,-54.01608009218761 L-53.045239208118325,-53.88470805815495 L-53.11100458609917,-53.75081741538839 L-53.17252331930628,-53.61454143660229 L-53.229734172926,-53.476015768838266 L-53.28258020014269,-53.33537829844423 L-53.33100879882266,-53.1927690138244 L-53.37497176387356,-53.048329866096935 L-53.41442533522702,-52.90220462779798 L-53.449330241396716,-52.75453874977264 L-53.47965173856864,-52.60547921639545 L-53.50535964518457,-52.45517439926432 L-53.5264283719843,-52.303773909513716 L-53.54283694747686,-52.151428448894016 L-53.554569038815146,-51.99828965976525 L-53.56161296805345,-51.84450997415461 L-53.56396172377149,-51.69024246202798 " />
			<path d="M40.82187391283025,-44.97382553732974 L40.824492124310666,-44.81058878693853 L40.83234385364171,-44.647160541008596 L40.84542038871622,-44.48372213594782 L40.863707220096835,-44.32045491943642 L40.887184057115334,-44.15754004920756 L40.915824850386755,-43.99515829203865 L40.949597820713194,-43.83348982317654 L40.98846549434531,-43.67271402641894 L41.0323847445624,-43.51300929507413 L41.08130683952483,-43.35455283401962 L41.13517749634585,-43.19752046307953 L41.193936941322676,-43.04208642193869 L41.2575199762601,-42.88842317681017 L41.32585605081297,-42.7367012290705 L41.398869340767334,-42.587088926075054 L41.47647883217328,-42.43975227436358 L41.55859841123629,-42.294854755462865 L41.64513695986721,-42.15255714449132 L41.73599845678488,-42.01301733176635 L41.83108208405926,-41.87639014761272 L41.93028233897678,-41.74282719056625 L42.033489151103886,-41.612476659163356 L42.14058800441874,-41.4854831875032 L42.2514600643757,-41.361987684764884 L42.36598230976157,-41.242127178857686 L42.48402766919722,-41.12603466437786 L42.60546516213319,-41.01383895504081 L42.7301600441829,-40.90566454075214 L42.85797395663201,-40.80163144947642 L42.98876507995828,-40.70185511405675 L43.12238829119136,-40.60644624413303 L43.258695324938124,-40.51551070330096 L43.39753493789463,-40.42914939164808 L43.53875307666248,-40.34745813379728 L43.682193048683004,-40.27052757258187 L43.82769569609995,-40.19844306847027 L43.97509957235758,-40.13128460485191 L44.124241121338166,-40.069126699289434 L44.27495485884037,-40.012038320835586 L44.42707355619681,-39.960082813506716 L44.58042842582741,-39.913317825997595 L44.73484930852235,-39.871795247715724 L44.89016486224702,-39.83556115120596 L45.04620275225941,-39.80465574102943 L45.20278984232896,-39.77911330915343 L45.35975238684475,-39.75896219690182 L45.516916223599786,-39.7442247635081 L45.67410696703763,-39.734917361306074 L45.831150201746766,-39.73105031758571 L45.98787167598815,-39.732627923134146 L46.14409749504111,-39.73964842747476 L46.29965431415312,-39.75210404080948 L46.45436953087939,-39.769980942662094 L46.608071476598695,-39.79325929721326 L46.76058960699319,-39.821913275309804 L46.91175469128062,-39.85591108312423 L47.061398999989095,-39.89521499743244 L47.20935649106605,-39.939781407470605 L47.3554629941149,-39.98956086332471 L47.499556392554865,-40.04449813079912 L47.64147680350204,-40.10453225270319 L47.78106675517192,-40.16959661648806 L47.918171361606646,-40.23961902815849 L48.052638494533056,-40.3145217923777 " />
			<path d="M48.05263849453309,-40.31452179237772 L48.1581621822138,-40.377870764761695 L48.261829199361785,-40.44424215814015 L48.36356599773315,-40.51358888425336 L48.463300398508956,-40.585861743943624 L48.560961643503674,-40.66100946206038 L48.65648044536569,-40.73897872383821 L48.749789036734384,-40.81971421272187 L48.840821218318744,-40.90315864961149 L48.92951240586355,-40.989252833500174 L49.01579967596969,-41.07793568347513 L49.09962181073623,-41.16914428205248 L49.18091934119241,-41.262813919815095 L49.259634589488854,-41.35887814132177 L49.335711709818106,-41.45726879225507 L49.409096728035294,-41.55791606777455 L49.47973757995099,-41.66074856204089 " />
			<path d="M44.90609805665075,-49.534237084348256 L44.78177558828026,-49.52381711819272 L44.65799188151685,-49.50993083329929 L44.534834756715604,-49.49258808151764 L44.41239158969288,-49.471801166943834 L44.29074924973612,-49.447584837191 L44.16999403797307,-49.4199562729264 L44.05021162614398,-49.388935075682305 L43.93148699582044,-49.3545432539494 L43.813904378113854,-49.316805207562496 L43.69754719391625,-49.27574771038965 L43.58249799471602,-49.23139989133705 L43.468838404030436,-49.18379321368299 L43.35664905949648,-49.1329614527558 L43.246009555661225,-49.07894067197133 L43.136998387512136,-49.02176919724722 L43.029692894787594,-48.961487589811945 " />
			<path d="M43.02969289478758,-48.96148758981194 L42.90490082937534,-48.88611914360785 L42.78273286201123,-48.806522188732345 L42.66331059683635,-48.72277595478661 L42.54675290496152,-48.634963801501286 L42.43317580614477,-48.543173135761414 L42.322692353307,-48.44749532460297 L42.215412520000854,-48.34802560426751 L42.1114430909447,-48.24486298540546 L42.01088755573074,-48.13811015452239 L41.91384600581305,-48.02787337176645 L41.82041503487805,-47.91426236515862 L41.73068764269663,-47.797390221371124 L41.64475314255357,-47.67737327316264 L41.562697072346474,-47.554330983582446 L41.48460110944262,-47.42838582705874 L41.410542989378584,-47.29966316748941 L41.340596428483416,-47.168291133456755 L41.27483105050257,-47.034400490690196 L41.21331231729546,-46.89812451190409 L41.15610146367574,-46.75959884414007 L41.10325543645905,-46.61896137374604 L41.05482683777908,-46.47635208912621 L41.01086387272818,-46.33191294139874 L40.97141030137472,-46.185787703099784 L40.936505395205025,-46.03812182507445 L40.9061838980331,-45.88906229169726 L40.88047599141717,-45.73875747456613 L40.85940726461744,-45.58735698481552 L40.84299868912488,-45.43501152419582 L40.831266597786595,-45.281872735067054 L40.82422266854829,-45.12809304945642 L40.82187391283025,-44.97382553732979 " />
			<path d="M-53.56396172377149,46.221160109059404 L-53.561343512291074,46.38439685945061 L-53.55349178296003,46.54782510538055 L-53.54041524788552,46.71126351044132 L-53.522128416504906,46.87453072695272 L-53.498651579486406,47.03744559718158 L-53.470010786214985,47.19982735435049 L-53.436237815888546,47.3614958232126 L-53.39737014225643,47.522271619970205 L-53.35345089203934,47.681976351315015 L-53.30452879707691,47.84043281236952 L-53.250658140255894,47.997465183309615 L-53.191898695279065,48.15289922445045 L-53.12831566034164,48.30656246957897 L-53.05997958578877,48.458284417318644 L-52.98696629583441,48.60789672031409 L-52.90935680442846,48.755233372025565 L-52.82723722536545,48.90013089092628 L-52.74069867673453,49.042428501897824 L-52.64983717981686,49.18196831462279 L-52.55475355254248,49.318595498776425 L-52.45555329762496,49.45215845582289 L-52.352346485497854,49.582508987225786 L-52.245247632183,49.70950245888594 L-52.13437557222604,49.83299796162426 L-52.01985332684017,49.952858467531456 L-51.90180796740452,50.06895098201128 L-51.78037047446855,50.18114669134833 L-51.65567559241884,50.289321105637 L-51.52786167996973,50.393354196912725 L-51.39707055664346,50.493130532332394 L-51.26344734541038,50.58853940225611 L-51.12714031166362,50.67947494308818 L-50.98830069870711,50.76583625474106 L-50.84708255993926,50.84752751259186 L-50.703642587918736,50.92445807380727 L-50.55813994050179,50.99654257791887 L-50.41073606424416,51.06370104153723 L-50.261594515263575,51.12585894709971 L-50.11088077776137,51.182947325553556 L-49.95876208040493,51.234902832882426 L-49.805407210774334,51.28166782039155 L-49.65098632807939,51.32319039867342 L-49.49567077435472,51.359424495183184 L-49.33963288434233,51.390329905359714 L-49.18304579427278,51.41587233723571 L-49.026083249756994,51.43602344948732 L-48.868919413001954,51.45076088288104 L-48.71172866956411,51.46006828508307 L-48.554685434854974,51.46393532880343 L-48.39796396061359,51.462357723254996 L-48.24173814156063,51.45533721891438 L-48.08618132244862,51.442881605579664 L-47.93146610572235,51.42500470372705 L-47.777764160003045,51.40172634917588 L-47.62524602960855,51.37307237107934 L-47.47408094532112,51.339074563264916 L-47.324436636612646,51.2997706489567 L-47.17647914553569,51.25520423891854 L-47.03037264248684,51.20542478306443 L-46.886279244046875,51.15048751559002 L-46.7443588330997,51.090453393685955 L-46.60476888142982,51.025389029901085 L-46.467664274995094,50.955366618230656 L-46.333197142068684,50.880463854011445 " />
			<path d="M-46.33319714206865,50.880463854011424 L-46.22767345438794,50.81711488162745 L-46.124006437239956,50.75074348824899 L-46.02226963886859,50.68139676213578 L-45.922535238092784,50.60912390244552 L-45.824873993098066,50.533976184328765 L-45.72935519123605,50.456006922550934 L-45.63604659986736,50.37527143366727 L-45.545014418283,50.29182699677765 L-45.4563232307382,50.20573281288897 L-45.37003596063205,50.11704996291401 L-45.28621382586551,50.025841364336664 L-45.20491629540933,49.93217172657405 L-45.126201047112886,49.836107505067375 L-45.05012392678364,49.73771685413407 L-44.976738908566446,49.6370695786146 L-44.90609805665075,49.534237084348256 " />
			<path d="M-49.47973757995099,41.66074856204089 L-49.60406004832148,41.671168528196425 L-49.72784375508489,41.68505481308985 L-49.851000879886136,41.702397564871504 L-49.97344404690886,41.72318447944531 L-50.09508638686562,41.74740080919814 L-50.21584159862867,41.77502937346274 L-50.335624010457764,41.80605057070684 L-50.4543486407813,41.84044239243974 L-50.571931258487886,41.87818043882665 L-50.68828844268549,41.91923793599949 L-50.80333764188572,41.963585755052094 L-50.916997232571305,42.01119243270615 L-51.02918657710526,42.06202419363334 L-51.139826080940516,42.11604497441781 L-51.248837249089604,42.173216449141925 L-51.356142741814146,42.2334980565772 " />
			<path d="M-51.35614274181416,42.233498056577204 L-51.4809348072264,42.30886650278129 L-51.60310277459051,42.3884634576568 L-51.722525039765394,42.47220969160253 L-51.83908273164022,42.560021844887856 L-51.95265983045697,42.65181251062773 L-52.06314328329474,42.747490321786174 L-52.17042311660089,42.84696004212163 L-52.274392545657044,42.95012266098368 L-52.374948080871,43.056875491866755 L-52.47198963078869,43.167112274622696 L-52.56542060172369,43.28072328123052 L-52.65514799390511,43.39759542501802 L-52.74108249404817,43.517612373226505 L-52.82313856425527,43.640654662806696 L-52.90123452715912,43.7665998193304 L-52.97529264722316,43.89532247889973 L-53.045239208118325,44.02669451293239 L-53.11100458609917,44.160585155698946 L-53.17252331930628,44.29686113448505 L-53.229734172926,44.43538680224907 L-53.28258020014269,44.5760242726431 L-53.33100879882266,44.71863355726293 L-53.37497176387356,44.8630727049904 L-53.41442533522702,45.00919794328936 L-53.449330241396716,45.156863821314694 L-53.47965173856864,45.305923354691885 L-53.50535964518457,45.456228171823014 L-53.5264283719843,45.60762866157362 L-53.54283694747686,45.75997412219332 L-53.554569038815146,45.91311291132209 L-53.56161296805345,46.066892596932725 L-53.56396172377149,46.221160109059355 " />
			<path d="M40.82187391283025,52.9375770337576 L40.824492124310666,53.100813784148805 L40.83234385364171,53.26424203007874 L40.84542038871622,53.427680435139514 L40.863707220096835,53.590947651650914 L40.887184057115334,53.753862521879775 L40.915824850386755,53.91624427904868 L40.949597820713194,54.077912747910794 L40.98846549434531,54.2386885446684 L41.0323847445624,54.39839327601321 L41.08130683952483,54.556849737067715 L41.13517749634585,54.71388210800781 L41.193936941322676,54.869316149148645 L41.2575199762601,55.022979394277165 L41.32585605081297,55.17470134201684 L41.398869340767334,55.32431364501228 L41.47647883217328,55.47165029672376 L41.55859841123629,55.61654781562447 L41.64513695986721,55.75884542659602 L41.73599845678488,55.89838523932099 L41.83108208405926,56.03501242347462 L41.93028233897678,56.168575380521084 L42.033489151103886,56.29892591192398 L42.14058800441874,56.42591938358414 L42.2514600643757,56.54941488632245 L42.36598230976157,56.66927539222965 L42.48402766919722,56.785367906709475 L42.60546516213319,56.897563616046526 L42.7301600441829,57.005738030335195 L42.85797395663201,57.10977112161092 L42.98876507995828,57.20954745703059 L43.12238829119136,57.304956326954304 L43.258695324938124,57.395891867786375 L43.39753493789463,57.482253179439255 L43.53875307666248,57.563944437290054 L43.682193048683004,57.64087499850547 L43.82769569609995,57.71295950261707 L43.97509957235758,57.78011796623542 L44.124241121338166,57.8422758717979 L44.27495485884037,57.89936425025175 L44.42707355619681,57.95131975758062 L44.58042842582741,57.99808474508974 L44.73484930852235,58.03960732337161 L44.89016486224702,58.07584141988138 L45.04620275225941,58.10674683005791 L45.20278984232896,58.132289261933906 L45.35975238684475,58.15244037418552 L45.516916223599786,58.167177807579236 L45.67410696703763,58.17648520978126 L45.831150201746766,58.180352253501624 L45.98787167598815,58.17877464795319 L46.14409749504111,58.171754143612574 L46.29965431415312,58.15929853027786 L46.45436953087939,58.14142162842524 L46.608071476598695,58.118143273874075 L46.76058960699319,58.08948929577753 L46.91175469128062,58.05549148796311 L47.061398999989095,58.016187573654896 L47.20935649106605,57.97162116361673 L47.3554629941149,57.921841707762624 L47.499556392554865,57.86690444028822 L47.64147680350204,57.80687031838415 L47.78106675517192,57.74180595459928 L47.918171361606646,57.67178354292885 L48.052638494533056,57.59688077870964 " />
			<path d="M48.05263849453309,57.59688077870962 L48.1581621822138,57.53353180632564 L48.261829199361785,57.46716041294719 L48.36356599773315,57.39781368683398 L48.463300398508956,57.32554082714371 L48.560961643503674,57.25039310902696 L48.65648044536569,57.17242384724913 L48.749789036734384,57.09168835836547 L48.840821218318744,57.008243921475845 L48.92951240586355,56.92214973758716 L49.01579967596969,56.833466887612204 L49.09962181073623,56.74225828903486 L49.18091934119241,56.64858865127224 L49.259634589488854,56.55252442976557 L49.335711709818106,56.454133778832265 L49.409096728035294,56.35348650331279 L49.47973757995099,56.25065400904645 " />
			<path d="M44.90609805665075,48.37716548673908 L44.78177558828026,48.38758545289462 L44.65799188151685,48.40147173778804 L44.534834756715604,48.4188144895697 L44.41239158969288,48.4396014041435 L44.29074924973612,48.463817733896335 L44.16999403797307,48.49144629816094 L44.05021162614398,48.52246749540503 L43.93148699582044,48.556859317137935 L43.813904378113854,48.59459736352484 L43.69754719391625,48.635654860697684 L43.58249799471602,48.68000267975029 L43.468838404030436,48.72760935740435 L43.35664905949648,48.778441118331536 L43.246009555661225,48.832461899116005 L43.136998387512136,48.88963337384012 L43.029692894787594,48.94991498127539 " />
			<path d="M43.02969289478758,48.9499149812754 L42.90490082937534,49.025283427479486 L42.78273286201123,49.10488038235499 L42.66331059683635,49.18862661630072 L42.54675290496152,49.27643876958605 L42.43317580614477,49.36822943532592 L42.322692353307,49.46390724648437 L42.215412520000854,49.563376966819824 L42.1114430909447,49.666539585681875 L42.01088755573074,49.77329241656495 L41.91384600581305,49.88352919932089 L41.82041503487805,49.997140205928716 L41.73068764269663,50.11401234971621 L41.64475314255357,50.2340292979247 L41.562697072346474,50.35707158750489 L41.48460110944262,50.483016744028596 L41.410542989378584,50.61173940359792 L41.340596428483416,50.74311143763058 L41.27483105050257,50.87700208039714 L41.21331231729546,51.01327805918324 L41.15610146367574,51.151803726947264 L41.10325543645905,51.2924411973413 L41.05482683777908,51.43505048196113 L41.01086387272818,51.579489629688595 L40.97141030137472,51.72561486798755 L40.936505395205025,51.87328074601289 L40.9061838980331,52.02234027939008 L40.88047599141717,52.17264509652121 L40.85940726461744,52.324045586271815 L40.84299868912488,52.476391046891514 L40.831266597786595,52.62952983602028 L40.82422266854829,52.78330952163092 L40.82187391283025,52.93757703375755 " />
			<path d="M-43.02969289478759,-48.949914981275406 L-46.33319714206865,-47.03093871707592 " />
			<path d="M-48.0526384945331,-57.59688077870962 L-51.35614274181416,-55.67790451451013 " />
			<path d="M51.35614274181415,-42.233498056577204 L48.05263849453309,-40.31452179237772 " />
			<path d="M46.33319714206864,-50.88046385401142 L43.02969289478758,-48.96148758981193 " />
			<path d="M-43.02969289478759,48.96148758981193 L-46.33319714206865,50.88046385401142 " />
			<path d="M-48.0526384945331,40.31452179237772 L-51.35614274181416,42.233498056577204 " />
			<path d="M51.35614274181415,55.67790451451013 L48.05263849453309,57.59688077870962 " />
			<path d="M46.33319714206864,47.03093871707592 L43.02969289478758,48.949914981275406 " />

       </g>

       <!-- solid lines -->
       <g  stroke="rgb(0,0,0)" fill="none">
			<path d="M-96.03758776024227,-103.6683313636858 L-92.7340835129612,-105.58730762788528 " />
			<path d="M-92.7340835129612,-105.58730762788527 L-92.7340835129612,90.2354975142894 " />
			<path d="M-96.03758776024227,92.15447377848888 L-92.7340835129612,90.23549751428939 " />
			<path d="M-96.03758776024227,-103.6683313636858 L-96.03758776024227,92.15447377848888 " />
			<path d="M-92.7340835129612,-105.58730762788527 L96.03758776024227,-92.15447377848888 " />
			<path d="M-92.7340835129612,90.2354975142894 L96.03758776024227,103.6683313636858 " />
			<path d="M96.03758776024227,-92.15447377848888 L96.03758776024227,103.6683313636858 " />
			<path d="M-50.26045747649042,-53.60921872622742 L-50.257839265010006,-53.44598197583621 L-50.24998753567896,-53.282553729906276 L-50.23691100060445,-53.1191153248455 L-50.21862416922384,-52.9558481083341 L-50.19514733220534,-52.79293323810524 L-50.166506538933916,-52.63055148093633 L-50.13273356860748,-52.46888301207422 L-50.09386589497536,-52.30810721531662 L-50.04994664475827,-52.14840248397181 L-50.001024549795844,-51.9899460229173 L-49.947153892974825,-51.83291365197721 L-49.888394447997996,-51.67747961083637 L-49.82481141306057,-51.52381636570785 L-49.7564753385077,-51.37209441796818 L-49.68346204855334,-51.222482114972735 L-49.605852557147394,-51.07514546326126 L-49.52373297808438,-50.930247944360545 L-49.43719442945346,-50.787950333389 L-49.346332932535795,-50.64841052066403 L-49.25124930526141,-50.5117833365104 L-49.15204905034389,-50.37822037946393 L-49.048842238216785,-50.247869848061036 L-48.94174338490193,-50.12087637640088 L-48.83087132494497,-49.997380873662564 L-48.7163490795591,-49.877520367755366 L-48.598303720123454,-49.76142785327554 L-48.47686622718748,-49.64923214393849 L-48.35217134513777,-49.54105772964982 L-48.22435743268866,-49.4370246383741 L-48.093566309362394,-49.33724830295443 L-47.95994309812931,-49.24183943303071 L-47.82363606438255,-49.15090389219864 L-47.68479645142604,-49.06454258054576 L-47.54357831265819,-48.98285132269496 L-47.40013834063767,-48.90592076147955 L-47.25463569322072,-48.83383625736795 L-47.10723181696309,-48.766677793749594 L-46.958090267982506,-48.704519888187114 L-46.807376530480305,-48.647431509733266 L-46.65525783312386,-48.595476002404396 L-46.501902963493265,-48.548711014895275 L-46.34748208079832,-48.507188436613404 L-46.19216652707365,-48.47095434010364 L-46.03612863706126,-48.44004892992711 L-45.87954154699171,-48.41450649805111 L-45.722579002475925,-48.3943553857995 L-45.565415165720886,-48.37961795240578 L-45.40822442228304,-48.370310550203754 L-45.251181187573906,-48.36644350648339 L-45.09445971333252,-48.368021112031826 L-44.93823389427956,-48.37504161637244 L-44.78267707516755,-48.38749722970716 L-44.62796185844128,-48.405374131559775 L-44.474259912721976,-48.42865248611094 L-44.32174178232748,-48.457306464207484 L-44.17057669804005,-48.49130427202191 L-44.02093238933158,-48.53060818633012 L-43.87297489825462,-48.575174596368285 L-43.72686839520577,-48.62495405222239 L-43.58277499676581,-48.6798913196968 L-43.440854585818634,-48.73992544160087 L-43.30126463414875,-48.80498980538574 L-43.164160027714026,-48.87501221705617 L-43.029692894787615,-48.94991498127538 " />
			<path d="M-43.02969289478758,-48.9499149812754 L-42.93239421358187,-49.00817646392895 L-42.83666695876811,-49.06900715647663 L-42.74256879286514,-49.132370416783864 L-42.65015639708953,-49.19822807719195 L-42.55948543721298,-49.26654046750882 L-42.4706105300313,-49.337266438904926 L-42.38358521046535,-49.41036338869971 L-42.29846189931353,-49.48578728602388 L-42.215291871675525,-49.56349269834198 L-42.13412522606606,-49.643432818819214 L-42.05501085423742,-49.72555949451616 L-41.97799641172893,-49.8098232553943 L-41.903128289160996,-49.8961733441149 L-41.830451584291154,-49.98455774661335 L-41.76001007484886,-50.074923223430496 L-41.69184619216542,-50.16721534178208 L-41.626000995614966,-50.26137850834704 L-41.56251414788177,-50.35735600275483 L-41.501423891068995,-50.45509001175163 L-41.44276702366303,-50.55452166402493 L-41.38657887836747,-50.65559106566541 L-41.33289330082005,-50.75823733624474 L-41.281742629205226,-50.862398645487715 L-41.23315767477495,-50.96801225051648 L-41.187167703289056,-51.07501453364453 L-41.14380041738669,-51.183341040697556 L-41.10308193989928,-51.292926519838325 L-41.0650367981151,-51.403704960871856 L-41.029687909004956,-51.51560963500754 L-40.99705656541787,-51.628573135054076 L-40.967162423255054,-51.742527416022995 L-40.94002348962994,-51.85740383611648 L-40.91565611202134,-51.97313319807457 L-40.89407496842638,-52.08964579085702 L-40.87529305851899,-52.20687143163462 L-40.859321695819396,-52.32473950806472 L-40.84617050087928,-52.44317902082544 L-40.835847395486724,-52.56211862638305 L-40.82835859789441,-52.68148667996658 L-40.82370861907397,-52.80121127872403 L-40.821900259998785,-52.92122030503389 L-40.82293460995674,-53.041441469946136 L-40.8268110458941,-53.161802356726376 L-40.83352723279079,-53.28223046447702 L-40.84307912506698,-53.40265325180903 L-40.855460969019916,-53.52299818053823 L-40.8706653062898,-53.643192759379545 L-40.88868297835238,-53.76316458761303 L-40.909503132035724,-53.882841398695405 L-40.93311322605778,-54.00215110379068 L-40.95949903858074,-54.121021835193766 L-40.98864467577776,-54.239381989620945 L-41.02053258140685,-54.35716027134096 L-41.05514354738599,-54.47428573512091 L-41.09245672536348,-54.590687828961016 L-41.13244963927613,-54.70629643659251 L-41.17509819888804,-54.82104191971304 L-41.220376714301615,-54.93485515993417 L-41.26825791143225,-55.047667600415764 L-41.318712948437195,-55.15941128716199 L-41.371711433088784,-55.27001890995432 L-41.42722144108161,-55.379423842896664 L-41.485209535262506,-55.48756018454834 L-41.54564078577186,-55.59436279762062 L-41.60847879108402,-55.69976734821298 L-41.67368569993426,-55.80371034456549 L-41.741222234118936,-55.90612917530382 L-41.8110477121552,-56.006962147154006 L-41.88312007378603,-56.10614852210421 L-41.95739590531574,-56.20362855399098 L-42.03383046576077,-56.299343524488116 L-42.11237771379998,-56.3932357784764 L-42.19299033550821,-56.48524875877289 L-42.275619772856466,-56.57532704019884 L-42.36021625296138,-56.66341636296577 L-42.44672881806662,-56.749463665359514 L-42.535105356237864,-56.83341711570262 L-42.62529263275314,-56.91522614357583 L-42.71723632216939,-56.99484147027979 L-42.810881041046116,-57.07221513851869 L-42.906170381306254,-57.14730054128799 L-43.00304694421434,-57.220052449948675 L-43.10145237495132,-57.29042704147133 L-43.20132739776533,-57.358381924833516 L-43.302611851677206,-57.42387616655448 L-43.405244726719175,-57.48687031535199 L-43.509164200685,-57.547326425906334 L-43.61430767636937,-57.605208081717095 L-43.72061181927409,-57.660480417039146 L-43.82801259575846,-57.71311013788447 L-43.936445311610676,-57.76306554207717 L-44.04584465101729,-57.810316538349724 L-44.15614471590693,-57.8548346644688 L-44.267279065644914,-57.89659310437985 L-44.37918075705452,-57.93556670436015 L-44.49178238474112,-57.97173198817036 L-44.60501612169465,-58.00506717119583 L-44.71881376014605,-58.0355521735688 L-44.83310675265308,-58.06316863226373 L-44.947826253390744,-58.08789991215856 L-45.06290315962144,-58.109731116055045 L-45.178268153319856,-58.128649093652264 L-45.293851742927565,-58.144642449467916 L-45.40958430521213,-58.15770154970248 L-45.52539612720555,-58.16781852804229 L-45.64121744819675,-58.17498729039789 L-45.75697850175279,-58.179203518574894 L-45.8726095577436,-58.180464672875104 L-45.98804096434477,-58.178769993626325 L-46.10320318999323,-58.174120501639976 L-46.21802686527044,-58.16651899759617 L-46.33244282468794,-58.155970060356694 L-46.44638214835007,-58.142480044206906 L-46.559776203468715,-58.12605707502811 L-46.67255668570515,-58.106711045402825 L-46.78465566031402,-58.08445360865593 L-46.89600560306467,-58.05929817183504 L-47.00653944091522,-58.03125988763469 L-47.11619059241488,-58.00035564526885 L-47.22489300781011,-57.96660406029754 L-47.33258120883051,-57.93002546341351 L-47.43919032813052,-57.89064188819574 L-47.54465614836304,-57.8484770578373 L-47.64891514086158,-57.803556370855354 L-47.75190450390757,-57.75590688579205 L-47.8535622005597,-57.705557304915466 L-47.95382699602276,-57.652537956930416 L-48.05263849453308,-57.596880778709625 " />
			<path d="M-48.05263849453309,-57.59688077870962 L-48.17743055994533,-57.52151233250553 L-48.29959852730944,-57.441915377630025 L-48.419020792484325,-57.35816914368429 L-48.53557848435915,-57.270356990398966 L-48.649155583175904,-57.178566324659094 L-48.759639036013674,-57.08288851350065 L-48.86691886931982,-56.98341879316519 L-48.970888298375975,-56.88025617430314 L-49.07144383358993,-56.77350334342007 L-49.16848538350762,-56.66326656066413 L-49.26191635444262,-56.5496555540563 L-49.35164374662404,-56.432783410268804 L-49.4375782467671,-56.31276646206032 L-49.5196343169742,-56.189724172480126 L-49.59773027987805,-56.06377901595642 L-49.67178839994209,-55.93505635638709 L-49.741734960837256,-55.803684322354435 L-49.8075003388181,-55.669793679587876 L-49.86901907202521,-55.533517700801774 L-49.92622992564493,-55.39499203303775 L-49.97907595286162,-55.25435456264372 L-50.02750455154159,-55.11174527802389 L-50.07146751659249,-54.96730613029642 L-50.110921087945954,-54.821180891997464 L-50.14582599411565,-54.67351501397213 L-50.17614749128757,-54.52445548059494 L-50.2018553979035,-54.37415066346381 L-50.22292412470323,-54.2227501737132 L-50.23933270019579,-54.0704047130935 L-50.25106479153408,-53.917265923964734 L-50.258108720772384,-53.7634862383541 L-50.26045747649042,-53.60921872622747 " />
			<path d="M44.12537816011132,-46.892801801529224 L44.127996371591735,-46.72956505113802 L44.13584810092278,-46.56613680520808 L44.14892463599729,-46.40269840014731 L44.1672114673779,-46.23943118363591 L44.1906883043964,-46.07651631340705 L44.219329097667824,-45.91413455623814 L44.25310206799426,-45.75246608737603 L44.29196974162638,-45.59169029061842 L44.33588899184347,-45.43198555927361 L44.3848110868059,-45.27352909821911 L44.438681743626915,-45.116496727279014 L44.497441188603744,-44.96106268613818 L44.56102422354117,-44.80739944100966 L44.62936029809404,-44.655677493269984 L44.7023735880484,-44.50606519027454 L44.77998307945435,-44.358728538563064 L44.86210265851736,-44.21383101966235 L44.94864120714828,-44.071533408690804 L45.039502704065946,-43.931993595965835 L45.13458633134033,-43.7953664118122 L45.23378658625785,-43.66180345476574 L45.336993398384955,-43.53145292336284 L45.44409225169981,-43.404459451702685 L45.55496431165677,-43.28096394896437 L45.66948655704264,-43.16110344305717 L45.78753191647829,-43.04501092857735 L45.90896940941426,-42.9328152192403 L46.03366429146397,-42.82464080495163 L46.16147820391308,-42.7206077136759 L46.292269327239346,-42.620831378256234 L46.42589253847243,-42.52542250833252 L46.56219957221919,-42.43448696750045 L46.7010391851757,-42.34812565584757 L46.84225732394355,-42.26643439799677 L46.98569729596407,-42.189503836781356 L47.13119994338102,-42.117419332669755 L47.27860381963865,-42.0502608690514 L47.427745368619235,-41.98810296348892 L47.578459106121436,-41.93101458503507 L47.73057780347788,-41.8790590777062 L47.883932673108475,-41.83229409019708 L48.03835355580342,-41.79077151191521 L48.19366910952809,-41.754537415405444 L48.34970699954048,-41.723632005228914 L48.50629408961003,-41.69808957335292 L48.663256634125815,-41.677938461101306 L48.820420470880855,-41.663201027707586 L48.9776112143187,-41.65389362550556 L49.134654449027835,-41.6500265817852 L49.29137592326922,-41.65160418733363 L49.44760174232218,-41.65862469167425 L49.60315856143419,-41.671080305008964 L49.75787377816046,-41.68895720686158 L49.911575723879764,-41.71223556141275 L50.06409385427426,-41.74088953950929 L50.21525893856169,-41.77488734732371 L50.36490324727016,-41.814191261631926 L50.51286073834712,-41.85875767167009 L50.65896724139597,-41.9085371275242 L50.803060639835934,-41.963474394998606 L50.944981050783106,-42.02350851690267 L51.08457100245299,-42.08857288068754 L51.221675608887715,-42.15859529235797 L51.356142741814125,-42.23349805657718 " />
			<path d="M51.35614274181416,-42.233498056577204 L51.45344142301987,-42.29175953923075 L51.54916867783363,-42.352590231778436 L51.6432668437366,-42.41595349208567 L51.73567923951221,-42.481811152493755 L51.82635019938876,-42.550123542810624 L51.91522510657044,-42.62084951420673 L52.00225042613639,-42.69394646400151 L52.08737373728821,-42.769370361325684 L52.170543764926215,-42.84707577364379 L52.25171041053568,-42.92701589412102 L52.33082478236432,-43.00914256981797 L52.40783922487281,-43.093406330696105 L52.482707347440744,-43.179756419416705 L52.555384052310586,-43.26814082191515 L52.62582556175288,-43.3585062987323 L52.69398944443632,-43.45079841708389 L52.759834640986774,-43.54496158364885 L52.82332148871997,-43.64093907805663 L52.884411745532745,-43.738673087053435 L52.94306861293871,-43.83810473932674 L52.99925675823427,-43.93917414096722 L53.052942335781694,-44.041820411546546 L53.104093007396514,-44.14598172078952 L53.15267796182679,-44.251595325818286 L53.198667933312684,-44.35859760894633 L53.24203521921505,-44.46692411599936 L53.28275369670246,-44.57650959514013 L53.32079883848664,-44.68728803617366 L53.356147727596785,-44.79919271030935 L53.38877907118387,-44.91215621035588 L53.418673213346686,-45.0261104913248 L53.445812146971804,-45.14098691141829 L53.4701795245804,-45.25671627337638 L53.49176066817536,-45.373228866158826 L53.51054257808275,-45.49045450693642 L53.526513940782344,-45.60832258336652 L53.53966513572246,-45.726762096127246 L53.54998824111502,-45.84570170168485 L53.55747703870733,-45.96506975526839 L53.56212701752777,-46.08479435402584 L53.563935376602956,-46.2048033803357 L53.562901026645,-46.32502454524794 L53.559024590707644,-46.44538543202818 L53.55230840381095,-46.56581353977882 L53.54275651153476,-46.686236327110834 L53.530374667581825,-46.80658125584004 L53.51517033031194,-46.92677583468135 L53.49715265824936,-47.04674766291484 L53.47633250456602,-47.16642447399721 L53.45272241054396,-47.285734179092486 L53.426336598021,-47.40460491049557 L53.39719096082398,-47.52296506492275 L53.36530305519489,-47.640743346642765 L53.33069208921575,-47.757868810422714 L53.29337891123826,-47.87427090426282 L53.25338599732561,-47.989879511894316 L53.2107374377137,-48.104624995014845 L53.165458922300125,-48.21843823523598 L53.11757772516949,-48.33125067571757 L53.067122688164545,-48.44299436246379 L53.01412420351296,-48.55360198525612 L52.95861419552013,-48.66300691819847 L52.900626101339235,-48.77114325985015 L52.84019485082988,-48.877945872922425 L52.77735684551772,-48.983350423514786 L52.71214993666748,-49.087293419867294 L52.644613402482804,-49.18971225060562 L52.57478792444654,-49.29054522245581 L52.50271556281571,-49.38973159740602 L52.428439731286,-49.48721162929279 L52.35200517084097,-49.58292659978992 L52.27345792280176,-49.67681885377821 L52.19284530109353,-49.768831834074696 L52.110215863745275,-49.85891011550065 L52.02561938364036,-49.946999438267575 L51.93910681853512,-50.03304674066132 L51.85073028036388,-50.11700019100443 L51.7605430038486,-50.198809218877635 L51.66859931443235,-50.27842454558159 L51.574954595555624,-50.3557982138205 L51.47966525529549,-50.430883616589796 L51.3827886923874,-50.50363552525048 L51.28438326165042,-50.57401011677314 L51.18450823883641,-50.64196500013532 L51.083223784924535,-50.707459241856284 L50.980590909882565,-50.7704533906538 L50.87667143591674,-50.83090950120814 L50.77152796023237,-50.8887911570189 L50.66522381732765,-50.94406349234095 L50.55782304084328,-50.996693213186276 L50.449390324991064,-51.04664861737898 L50.33999098558445,-51.09389961365153 L50.22969092069481,-51.1384177397706 L50.11855657095683,-51.18017617968166 L50.00665487954722,-51.219149779661954 L49.89405325186062,-51.25531506347217 L49.78081951490709,-51.28865024649764 L49.66702187645569,-51.31913524887061 L49.55272888394866,-51.34675170756554 L49.438009383210996,-51.37148298746037 L49.3229324769803,-51.39331419135685 L49.207567483281885,-51.41223216895407 L49.091983893674175,-51.42822552476972 L48.97625133138961,-51.441284625004286 L48.86043950939619,-51.451401603344095 L48.74461818840499,-51.45857036569969 L48.62885713484895,-51.4627865938767 L48.51322607885814,-51.46404774817691 L48.39779467225697,-51.46235306892813 L48.28263244660851,-51.45770357694178 L48.1678087713313,-51.45010207289798 L48.0533928119138,-51.4395531356585 L47.93945348825167,-51.42606311950871 L47.826059433133025,-51.40964015032991 L47.71327895089659,-51.39029412070463 L47.60117997628772,-51.36803668395773 L47.48983003353707,-51.342881247136845 L47.37929619568652,-51.314842962936495 L47.26964504418686,-51.28393872057065 L47.16094262879163,-51.25018713559935 L47.05325442777123,-51.21360853871531 L46.94664530847122,-51.174224963497544 L46.8411794882387,-51.132060133139106 L46.73692049574016,-51.08713944615716 L46.63393113269417,-51.03948996109386 L46.53227343604204,-50.98914038021727 L46.43200864057898,-50.93612103223222 L46.33319714206866,-50.88046385401143 " />
			<path d="M46.33319714206865,-50.880463854011424 L46.20840507665641,-50.805095407807336 L46.0862371092923,-50.72549845293183 L45.966814844117415,-50.6417522189861 L45.85025715224259,-50.55394006570077 L45.736680053425836,-50.4621493999609 L45.62619660058807,-50.366471588802455 L45.51891676728192,-50.267001868467 L45.414947338225765,-50.16383924960495 L45.31439180301181,-50.05708641872187 L45.21735025309412,-49.94684963596593 L45.12391928215912,-49.83323862935811 L45.0341918899777,-49.71636648557061 L44.94825738983464,-49.59634953736212 L44.86620131962754,-49.47330724778193 L44.78810535672369,-49.347362091258226 L44.71404723665965,-49.2186394316889 L44.644100675764484,-49.08726739765624 L44.57833529778364,-48.95337675488968 L44.51681656457653,-48.81710077610358 L44.45960571095681,-48.67857510833956 L44.40675968374012,-48.537937637945525 L44.35833108506015,-48.395328353325695 L44.31436812000925,-48.25088920559823 L44.27491454865579,-48.10476396729927 L44.24000964248609,-47.957098089273934 L44.20968814531417,-47.808038555896744 L44.18398023869824,-47.657733738765614 L44.16291151189851,-47.50633324901501 L44.14650293640595,-47.35398778839531 L44.13477084506766,-47.20084899926654 L44.127726915829356,-47.0470693136559 L44.12537816011132,-46.892801801529274 " />
			<path d="M-50.26045747649042,44.30218384485992 L-50.257839265010006,44.465420595251125 L-50.24998753567896,44.62884884118106 L-50.23691100060445,44.792287246241834 L-50.21862416922384,44.955554462753234 L-50.19514733220534,45.118469332982094 L-50.166506538933916,45.280851090151 L-50.13273356860748,45.442519559013114 L-50.09386589497536,45.60329535577072 L-50.04994664475827,45.76300008711553 L-50.001024549795844,45.921456548170035 L-49.947153892974825,46.07848891911013 L-49.888394447997996,46.233922960250965 L-49.82481141306057,46.387586205379485 L-49.7564753385077,46.53930815311916 L-49.68346204855334,46.6889204561146 L-49.605852557147394,46.83625710782608 L-49.52373297808438,46.98115462672679 L-49.43719442945346,47.12345223769834 L-49.346332932535795,47.26299205042331 L-49.25124930526141,47.39961923457694 L-49.15204905034389,47.5331821916234 L-49.048842238216785,47.6635327230263 L-48.94174338490193,47.79052619468646 L-48.83087132494497,47.91402169742477 L-48.7163490795591,48.03388220333197 L-48.598303720123454,48.149974717811794 L-48.47686622718748,48.262170427148845 L-48.35217134513777,48.370344841437515 L-48.22435743268866,48.47437793271324 L-48.093566309362394,48.57415426813291 L-47.95994309812931,48.669563138056624 L-47.82363606438255,48.760498678888695 L-47.68479645142604,48.846859990541574 L-47.54357831265819,48.928551248392374 L-47.40013834063767,49.00548180960779 L-47.25463569322072,49.07756631371939 L-47.10723181696309,49.14472477733774 L-46.958090267982506,49.20688268290022 L-46.807376530480305,49.26397106135407 L-46.65525783312386,49.31592656868294 L-46.501902963493265,49.36269155619206 L-46.34748208079832,49.40421413447393 L-46.19216652707365,49.4404482309837 L-46.03612863706126,49.47135364116023 L-45.87954154699171,49.496896073036226 L-45.722579002475925,49.517047185287836 L-45.565415165720886,49.531784618681556 L-45.40822442228304,49.54109202088358 L-45.251181187573906,49.544959064603944 L-45.09445971333252,49.54338145905551 L-44.93823389427956,49.536360954714894 L-44.78267707516755,49.52390534138018 L-44.62796185844128,49.50602843952756 L-44.474259912721976,49.482750084976395 L-44.32174178232748,49.45409610687985 L-44.17057669804005,49.42009829906543 L-44.02093238933158,49.380794384757216 L-43.87297489825462,49.33622797471905 L-43.72686839520577,49.286448518864944 L-43.58277499676581,49.231511251390536 L-43.440854585818634,49.17147712948647 L-43.30126463414875,49.1064127657016 L-43.164160027714026,49.03639035403117 L-43.029692894787615,48.96148758981196 " />
			<path d="M-43.02969289478758,48.96148758981194 L-42.93239421358187,48.90322610715839 L-42.83666695876811,48.842395414610706 L-42.74256879286514,48.77903215430347 L-42.65015639708953,48.71317449389539 L-42.55948543721298,48.64486210357852 L-42.4706105300313,48.57413613218241 L-42.38358521046535,48.50103918238763 L-42.29846189931353,48.42561528506346 L-42.215291871675525,48.347909872745355 L-42.13412522606606,48.26796975226812 L-42.05501085423742,48.185843076571174 L-41.97799641172893,48.10157931569304 L-41.903128289160996,48.01522922697244 L-41.830451584291154,47.92684482447399 L-41.76001007484886,47.83647934765684 L-41.69184619216542,47.744187229305254 L-41.626000995614966,47.65002406274029 L-41.56251414788177,47.55404656833251 L-41.501423891068995,47.45631255933571 L-41.44276702366303,47.356880907062404 L-41.38657887836747,47.255811505421924 L-41.33289330082005,47.1531652348426 L-41.281742629205226,47.04900392559962 L-41.23315767477495,46.943390320570856 L-41.187167703289056,46.83638803744281 L-41.14380041738669,46.72806153038978 L-41.10308193989928,46.61847605124901 L-41.0650367981151,46.50769761021548 L-41.029687909004956,46.39579293607979 L-40.99705656541787,46.28282943603326 L-40.967162423255054,46.16887515506434 L-40.94002348962994,46.053998734970854 L-40.91565611202134,45.938269373012766 L-40.89407496842638,45.82175678023032 L-40.87529305851899,45.70453113945272 L-40.859321695819396,45.58666306302262 L-40.84617050087928,45.4682235502619 L-40.835847395486724,45.34928394470429 L-40.82835859789441,45.229915891120754 L-40.82370861907397,45.110191292363304 L-40.821900259998785,44.990182266053445 L-40.82293460995674,44.8699611011412 L-40.8268110458941,44.74960021436096 L-40.83352723279079,44.62917210661032 L-40.84307912506698,44.50874931927831 L-40.855460969019916,44.388404390549105 L-40.8706653062898,44.26820981170779 L-40.88868297835238,44.1482379834743 L-40.909503132035724,44.02856117239193 L-40.93311322605778,43.909251467296656 L-40.95949903858074,43.79038073589357 L-40.98864467577776,43.67202058146639 L-41.02053258140685,43.55424229974638 L-41.05514354738599,43.43711683596643 L-41.09245672536348,43.32071474212632 L-41.13244963927613,43.20510613449483 L-41.17509819888804,43.0903606513743 L-41.220376714301615,42.97654741115316 L-41.26825791143225,42.86373497067157 L-41.318712948437195,42.75199128392535 L-41.371711433088784,42.64138366113302 L-41.42722144108161,42.53197872819067 L-41.485209535262506,42.42384238653899 L-41.54564078577186,42.31703977346672 L-41.60847879108402,42.21163522287436 L-41.67368569993426,42.10769222652185 L-41.741222234118936,42.00527339578352 L-41.8110477121552,41.90444042393333 L-41.88312007378603,41.80525404898312 L-41.95739590531574,41.707774017096355 L-42.03383046576077,41.61205904659922 L-42.11237771379998,41.518166792610934 L-42.19299033550821,41.426153812314446 L-42.275619772856466,41.33607553088849 L-42.36021625296138,41.24798620812157 L-42.44672881806662,41.16193890572782 L-42.535105356237864,41.07798545538471 L-42.62529263275314,40.99617642751151 L-42.71723632216939,40.91656110080755 L-42.810881041046116,40.83918743256864 L-42.906170381306254,40.764102029799346 L-43.00304694421434,40.69135012113866 L-43.10145237495132,40.620975529616004 L-43.20132739776533,40.55302064625382 L-43.302611851677206,40.48752640453286 L-43.405244726719175,40.42453225573534 L-43.509164200685,40.364076145181 L-43.61430767636937,40.30619448937024 L-43.72061181927409,40.25092215404819 L-43.82801259575846,40.198292433202866 L-43.936445311610676,40.148337029010165 L-44.04584465101729,40.10108603273761 L-44.15614471590693,40.05656790661854 L-44.267279065644914,40.01480946670748 L-44.37918075705452,39.97583586672719 L-44.49178238474112,39.939670582916975 L-44.60501612169465,39.9063353998915 L-44.71881376014605,39.87585039751853 L-44.83310675265308,39.848233938823604 L-44.947826253390744,39.823502658928774 L-45.06290315962144,39.80167145503229 L-45.178268153319856,39.78275347743507 L-45.293851742927565,39.76676012161942 L-45.40958430521213,39.753701021384856 L-45.52539612720555,39.74358404304505 L-45.64121744819675,39.73641528068945 L-45.75697850175279,39.73219905251244 L-45.8726095577436,39.73093789821223 L-45.98804096434477,39.73263257746101 L-46.10320318999323,39.73728206944736 L-46.21802686527044,39.744883573491165 L-46.33244282468794,39.75543251073064 L-46.44638214835007,39.76892252688043 L-46.559776203468715,39.78534549605923 L-46.67255668570515,39.80469152568451 L-46.78465566031402,39.82694896243141 L-46.89600560306467,39.8521043992523 L-47.00653944091522,39.88014268345265 L-47.11619059241488,39.91104692581849 L-47.22489300781011,39.944798510789795 L-47.33258120883051,39.98137710767383 L-47.43919032813052,40.0207606828916 L-47.54465614836304,40.062925513250036 L-47.64891514086158,40.10784620023198 L-47.75190450390757,40.155495685295286 L-47.8535622005597,40.20584526617187 L-47.95382699602276,40.25886461415692 L-48.05263849453308,40.31452179237771 " />
			<path d="M-48.05263849453309,40.31452179237772 L-48.17743055994533,40.389890238581806 L-48.29959852730944,40.46948719345731 L-48.419020792484325,40.55323342740304 L-48.53557848435915,40.64104558068837 L-48.649155583175904,40.73283624642824 L-48.759639036013674,40.82851405758669 L-48.86691886931982,40.927983777922144 L-48.970888298375975,41.031146396784195 L-49.07144383358993,41.13789922766727 L-49.16848538350762,41.24813601042321 L-49.26191635444262,41.361747017031036 L-49.35164374662404,41.47861916081853 L-49.4375782467671,41.59863610902702 L-49.5196343169742,41.72167839860721 L-49.59773027987805,41.847623555130916 L-49.67178839994209,41.97634621470024 L-49.741734960837256,42.1077182487329 L-49.8075003388181,42.24160889149946 L-49.86901907202521,42.37788487028556 L-49.92622992564493,42.516410538049584 L-49.97907595286162,42.65704800844362 L-50.02750455154159,42.79965729306345 L-50.07146751659249,42.944096440790915 L-50.110921087945954,43.09022167908987 L-50.14582599411565,43.23788755711521 L-50.17614749128757,43.3869470904924 L-50.2018553979035,43.53725190762353 L-50.22292412470323,43.688652397374135 L-50.23933270019579,43.840997857993834 L-50.25106479153408,43.9941366471226 L-50.258108720772384,44.14791633273324 L-50.26045747649042,44.30218384485987 " />
			<path d="M44.12537816011132,51.01860076955811 L44.127996371591735,51.18183751994932 L44.13584810092278,51.345265765879255 L44.14892463599729,51.50870417094003 L44.1672114673779,51.67197138745143 L44.1906883043964,51.83488625768029 L44.219329097667824,51.9972680148492 L44.25310206799426,52.15893648371131 L44.29196974162638,52.31971228046891 L44.33588899184347,52.47941701181372 L44.3848110868059,52.63787347286823 L44.438681743626915,52.79490584380832 L44.497441188603744,52.95033988494916 L44.56102422354117,53.10400313007768 L44.62936029809404,53.25572507781735 L44.7023735880484,53.405337380812796 L44.77998307945435,53.55267403252427 L44.86210265851736,53.697571551424986 L44.94864120714828,53.83986916239653 L45.039502704065946,53.9794089751215 L45.13458633134033,54.11603615927513 L45.23378658625785,54.2495991163216 L45.336993398384955,54.379949647724494 L45.44409225169981,54.50694311938465 L45.55496431165677,54.630438622122966 L45.66948655704264,54.750299128030164 L45.78753191647829,54.86639164250999 L45.90896940941426,54.97858735184704 L46.03366429146397,55.08676176613571 L46.16147820391308,55.19079485741143 L46.292269327239346,55.2905711928311 L46.42589253847243,55.38598006275482 L46.56219957221919,55.47691560358689 L46.7010391851757,55.56327691523977 L46.84225732394355,55.64496817309057 L46.98569729596407,55.72189873430598 L47.13119994338102,55.79398323841758 L47.27860381963865,55.86114170203594 L47.427745368619235,55.923299607598416 L47.578459106121436,55.980387986052264 L47.73057780347788,56.032343493381134 L47.883932673108475,56.079108480890255 L48.03835355580342,56.120631059172126 L48.19366910952809,56.15686515568189 L48.34970699954048,56.18777056585842 L48.50629408961003,56.21331299773442 L48.663256634125815,56.23346410998603 L48.820420470880855,56.24820154337975 L48.9776112143187,56.257508945581776 L49.134654449027835,56.26137598930214 L49.29137592326922,56.259798383753704 L49.44760174232218,56.25277787941309 L49.60315856143419,56.24032226607837 L49.75787377816046,56.222445364225756 L49.911575723879764,56.19916700967459 L50.06409385427426,56.17051303157805 L50.21525893856169,56.136515223763624 L50.36490324727016,56.09721130945541 L50.51286073834712,56.052644899417245 L50.65896724139597,56.00286544356314 L50.803060639835934,55.94792817608873 L50.944981050783106,55.88789405418466 L51.08457100245299,55.82282969039979 L51.221675608887715,55.752807278729364 L51.356142741814125,55.67790451451015 " />
			<path d="M51.35614274181416,55.67790451451013 L51.45344142301987,55.61964303185658 L51.54916867783363,55.5588123393089 L51.6432668437366,55.495449079001666 L51.73567923951221,55.42959141859358 L51.82635019938876,55.36127902827671 L51.91522510657044,55.290553056880604 L52.00225042613639,55.21745610708582 L52.08737373728821,55.14203220976165 L52.170543764926215,55.06432679744355 L52.25171041053568,54.98438667696632 L52.33082478236432,54.90226000126937 L52.40783922487281,54.81799624039123 L52.482707347440744,54.73164615167063 L52.555384052310586,54.64326174917218 L52.62582556175288,54.552896272355035 L52.69398944443632,54.46060415400345 L52.759834640986774,54.36644098743849 L52.82332148871997,54.270463493030704 L52.884411745532745,54.1727294840339 L52.94306861293871,54.0732978317606 L52.99925675823427,53.97222843012012 L53.052942335781694,53.86958215954079 L53.104093007396514,53.765420850297815 L53.15267796182679,53.65980724526905 L53.198667933312684,53.552804962141 L53.24203521921505,53.444478455087975 L53.28275369670246,53.334892975947206 L53.32079883848664,53.224114534913674 L53.356147727596785,53.11220986077799 L53.38877907118387,52.999246360731455 L53.418673213346686,52.885292079762536 L53.445812146971804,52.77041565966905 L53.4701795245804,52.65468629771096 L53.49176066817536,52.53817370492851 L53.51054257808275,52.42094806415091 L53.526513940782344,52.303079987720814 L53.53966513572246,52.18464047496009 L53.54998824111502,52.065700869402484 L53.55747703870733,51.94633281581895 L53.56212701752777,51.8266082170615 L53.563935376602956,51.70659919075164 L53.562901026645,51.586378025839394 L53.559024590707644,51.466017139059154 L53.55230840381095,51.34558903130851 L53.54275651153476,51.2251662439765 L53.530374667581825,51.1048213152473 L53.51517033031194,50.984626736405986 L53.49715265824936,50.8646549081725 L53.47633250456602,50.744978097090126 L53.45272241054396,50.62566839199485 L53.426336598021,50.506797660591765 L53.39719096082398,50.388437506164585 L53.36530305519489,50.27065922444457 L53.33069208921575,50.15353376066462 L53.29337891123826,50.037131666824514 L53.25338599732561,49.92152305919302 L53.2107374377137,49.80677757607249 L53.165458922300125,49.69296433585136 L53.11757772516949,49.58015189536977 L53.067122688164545,49.46840820862354 L53.01412420351296,49.357800585831214 L52.95861419552013,49.24839565288887 L52.900626101339235,49.14025931123719 L52.84019485082988,49.03345669816491 L52.77735684551772,48.92805214757255 L52.71214993666748,48.82410915122004 L52.644613402482804,48.72169032048171 L52.57478792444654,48.620857348631525 L52.50271556281571,48.52167097368132 L52.428439731286,48.42419094179455 L52.35200517084097,48.328475971297415 L52.27345792280176,48.23458371730913 L52.19284530109353,48.14257073701264 L52.110215863745275,48.05249245558669 L52.02561938364036,47.96440313281976 L51.93910681853512,47.87835583042602 L51.85073028036388,47.79440238008291 L51.7605430038486,47.7125933522097 L51.66859931443235,47.63297802550574 L51.574954595555624,47.55560435726684 L51.47966525529549,47.48051895449754 L51.3827886923874,47.407767045836856 L51.28438326165042,47.3373924543142 L51.18450823883641,47.269437570952014 L51.083223784924535,47.20394332923105 L50.980590909882565,47.14094918043354 L50.87667143591674,47.080493069879196 L50.77152796023237,47.022611414068436 L50.66522381732765,46.967339078746384 L50.55782304084328,46.91470935790106 L50.449390324991064,46.86475395370836 L50.33999098558445,46.817502957435806 L50.22969092069481,46.772984831316734 L50.11855657095683,46.73122639140568 L50.00665487954722,46.69225279142538 L49.89405325186062,46.65608750761517 L49.78081951490709,46.6227523245897 L49.66702187645569,46.59226732221673 L49.55272888394866,46.5646508635218 L49.438009383210996,46.53991958362697 L49.3229324769803,46.518088379730486 L49.207567483281885,46.49917040213327 L49.091983893674175,46.483177046317614 L48.97625133138961,46.47011794608305 L48.86043950939619,46.46000096774324 L48.74461818840499,46.452832205387644 L48.62885713484895,46.448615977210636 L48.51322607885814,46.44735482291043 L48.39779467225697,46.449049502159205 L48.28263244660851,46.453698994145554 L48.1678087713313,46.46130049818936 L48.0533928119138,46.47184943542884 L47.93945348825167,46.485339451578625 L47.826059433133025,46.50176242075742 L47.71327895089659,46.521108450382705 L47.60117997628772,46.5433658871296 L47.48983003353707,46.56852132395049 L47.37929619568652,46.59655960815084 L47.26964504418686,46.62746385051668 L47.16094262879163,46.66121543548799 L47.05325442777123,46.69779403237202 L46.94664530847122,46.73717760758979 L46.8411794882387,46.77934243794823 L46.73692049574016,46.82426312493018 L46.63393113269417,46.87191260999348 L46.53227343604204,46.922262190870065 L46.43200864057898,46.975281538855114 L46.33319714206866,47.030938717075905 " />
			<path d="M46.33319714206865,47.03093871707591 L46.20840507665641,47.10630716328 L46.0862371092923,47.185904118155506 L45.966814844117415,47.26965035210124 L45.85025715224259,47.357462505386565 L45.736680053425836,47.449253171126436 L45.62619660058807,47.54493098228488 L45.51891676728192,47.64440070262034 L45.414947338225765,47.74756332148239 L45.31439180301181,47.85431615236546 L45.21735025309412,47.964552935121404 L45.12391928215912,48.07816394172923 L45.0341918899777,48.195036085516726 L44.94825738983464,48.31505303372521 L44.86620131962754,48.438095323305404 L44.78810535672369,48.56404047982911 L44.71404723665965,48.69276313939844 L44.644100675764484,48.824135173431095 L44.57833529778364,48.958025816197654 L44.51681656457653,49.09430179498376 L44.45960571095681,49.23282746274778 L44.40675968374012,49.37346493314181 L44.35833108506015,49.51607421776164 L44.31436812000925,49.66051336548911 L44.27491454865579,49.806638603788066 L44.24000964248609,49.9543044818134 L44.20968814531417,50.10336401519059 L44.18398023869824,50.25366883232172 L44.16291151189851,50.40506932207233 L44.14650293640595,50.55741478269203 L44.13477084506766,50.710553571820796 L44.127726915829356,50.86433325743143 L44.12537816011132,51.01860076955806 " />
			<path d="M-96.03758776024227,92.15447377848888 L92.7340835129612,105.58730762788527 " />
			<path d="M92.7340835129612,105.58730762788527 L96.03758776024227,103.66833136368578 " />
			<path d="M-44.90609805665075,-48.377165486739074 L-44.815641904734036,-48.518564002755014 L-44.7303400531926,-48.66359040664468 L-44.65030162794003,-48.81205916739636 L-44.57562902143463,-48.96378035022128 L-44.50641776168966,-49.11855985953549 L-44.442756390065156,-49.27619968726469 L-44.38472634799777,-49.43649816615422 L-44.33240187281345,-49.59925022776022 L-44.28584990275624,-49.76424766479188 L-44.24512999135482,-49.93127939746921 L-44.21029423123617,-50.1001317435556 L-44.18138718748392,-50.270588691719574 L-44.158445840626655,-50.44243217787627 L-44.141499539329004,-50.61544236415485 L-44.13056996284621,-50.78939792013522 L-44.12567109328999,-50.964076305994084 L-44.12680919774139,-51.139254057198194 L-44.13398282023331,-51.314707070380564 L-44.14718278361317,-51.490210890033985 L-44.1663922012831,-51.66554099565496 L-44.19158649880289,-51.84047308897084 L-44.22273344532777,-52.01478338088264 L-44.25979319484112,-52.188248877756486 L-44.30271833712909,-52.3606476666974 L-44.35145395843211,-52.53175919944058 L-44.40593771169552,-52.701364574496786 L-44.466099896329695,-52.8692468171912 L-44.53186354737733,-53.03519115723713 L-44.60314453397406,-53.19898530348987 L-44.67985166697636,-53.36041971552882 L-44.76188681561902,-53.51928787172075 L-44.84914503305292,-53.675386533421126 L-44.94151469060269,-53.82851600497552 L-45.038877620572244,-53.97848038918853 L-45.141109267415736,-54.12508783793334 L-45.248078847080315,-54.26815079758136 L-45.35964951431708,-54.407486248937936 L-45.47567853774598,-54.5429159413772 L-45.59601748245083,-54.67426662087659 L-45.720512399870806,-54.801370251659115 L-45.84900402474549,-54.92406423116016 L-45.98132797886153,-55.042191598043445 L-46.11731498134024,-55.15560123300034 L-46.256791065197184,-55.26414805207544 L-46.399577799896555,-55.36769319227126 L-46.54549251961588,-55.466104189194375 L-46.694348556928745,-55.55925514651602 L-46.84595548160686,-55.64702689703016 L-47.00011934423572,-55.729307155103015 L-47.15664292433246,-55.80599066031915 L-47.31532598264827,-55.87697931214014 L-47.4759655173327,-55.942182295403796 L-47.63835602363219,-56.001516196503154 L-47.802289756790465,-56.054905110096804 L-47.96755699781463,-56.102280736213935 L-48.13394632176683,-56.14358246762987 L-48.30124486823829,-56.17875746740037 L-48.46923861365983,-56.20776073645547 L-48.637712645100336,-56.23055517116641 L-48.80645143520296,-56.24711161081196 L-48.97523911790742,-56.25740887488352 L-49.14385976460556,-56.26143379018109 L-49.31209766037693,-56.259181207665684 L-49.479737579950964,-56.25065400904645 " />
			<path d="M49.47973757995099,-41.66074856204089 L49.57019373186771,-41.80214707805682 L49.65549558340915,-41.94717348194649 L49.735534008661716,-42.095642242698176 L49.81020661516711,-42.24736342552309 L49.879417874912086,-42.4021429348373 L49.943079246536584,-42.559782762566506 L50.00110928860397,-42.72008124145604 L50.05343376378829,-42.88283330306204 L50.0999857338455,-43.047830740093694 L50.14070564524692,-43.214862472771024 L50.17554140536557,-43.38371481885741 L50.20444844911782,-43.55417176702139 L50.22738979597509,-43.72601525317808 L50.244336097272736,-43.899025439456665 L50.25526567375553,-44.072980995437035 L50.260164543311745,-44.247659381295904 L50.25902643886035,-44.42283713250001 L50.25185281636843,-44.59829014568238 L50.23865285298857,-44.7737939653358 L50.21944343531864,-44.94912407095677 L50.19424913779885,-45.12405616427265 L50.16310219127397,-45.29836645618445 L50.12604244176062,-45.4718319530583 L50.08311729947264,-45.644230741999216 L50.03438167816963,-45.81534227474239 L49.97989792490621,-45.9849476497986 L49.91973574027204,-46.15282989249301 L49.85397208922441,-46.31877423253894 L49.78269110262768,-46.48256837879168 L49.70598396962537,-46.64400279083063 L49.62394882098272,-46.80287094702256 L49.53669060354882,-46.95896960872294 L49.44432094599905,-47.11209908027733 L49.34695801602949,-47.262063464490346 L49.244726369186004,-47.408670913235156 L49.13775678952142,-47.551733872883176 L49.026186122284656,-47.69106932423975 L48.910157098855755,-47.826499016679016 L48.78981815415091,-47.9578496961784 L48.66532323673093,-48.08495332696093 L48.53683161185624,-48.20764730646197 L48.404507657740204,-48.32577467334526 L48.26852065526149,-48.439184308302146 L48.12904457140455,-48.547731127377254 L47.98625783670518,-48.65127626757307 L47.840343116985856,-48.74968726449618 L47.69148707967299,-48.84283822181783 L47.539880154994876,-48.930609972331965 L47.38571629236601,-49.01289023040483 L47.22919271226927,-49.08957373562096 L47.070509653953465,-49.16056238744195 L46.90987011926903,-49.2257653707056 L46.74747961296954,-49.28509927180496 L46.58354587981127,-49.33848818539861 L46.4182786387871,-49.38586381151575 L46.251889314834905,-49.427165542931675 L46.08459076836344,-49.46234054270217 L45.9165970229419,-49.491343811757275 L45.7481229915014,-49.514138246468214 L45.579384201398774,-49.53069468611377 L45.41059651869431,-49.54099195018532 L45.241975871996175,-49.54501686548289 L45.073737976224805,-49.54276428296749 L44.90609805665077,-49.534237084348256 " />
			<path d="M-44.90609805665075,49.534237084348256 L-44.81564190473403,49.39283856833232 L-44.7303400531926,49.24781216444266 L-44.650301627940024,49.099343403690966 L-44.57562902143463,48.94762222086605 L-44.506417761689654,48.79284271155184 L-44.442756390065156,48.63520288382264 L-44.38472634799777,48.474904404933106 L-44.33240187281345,48.31215234332711 L-44.28584990275624,48.147154906295455 L-44.24512999135482,47.98012317361812 L-44.21029423123617,47.811270827531736 L-44.18138718748392,47.640813879367755 L-44.15844584062665,47.468970393211066 L-44.141499539329004,47.295960206932484 L-44.13056996284621,47.12200465095211 L-44.125671093289995,46.947326265093245 L-44.12680919774139,46.77214851388914 L-44.13398282023331,46.596695500706765 L-44.14718278361317,46.42119168105335 L-44.1663922012831,46.24586157543237 L-44.19158649880289,46.0709294821165 L-44.22273344532777,45.896619190204696 L-44.25979319484112,45.72315369333085 L-44.30271833712909,45.550754904389926 L-44.35145395843211,45.37964337164675 L-44.40593771169553,45.21003799659054 L-44.4660998963297,45.04215575389614 L-44.53186354737733,44.8762114138502 L-44.60314453397406,44.71241726759746 L-44.67985166697637,44.55098285555851 L-44.76188681561902,44.39211469936658 L-44.84914503305292,44.23601603766621 L-44.94151469060269,44.08288656611181 L-45.03887762057225,43.9329221818988 L-45.141109267415736,43.786314733153986 L-45.248078847080315,43.643251773505966 L-45.359649514317084,43.5039163221494 L-45.47567853774598,43.36848662971013 L-45.59601748245083,43.23713595021074 L-45.72051239987081,43.110032319428214 L-45.8490040247455,42.98733833992717 L-45.981327978861536,42.869210973043884 L-46.11731498134025,42.755801338087 L-46.256791065197184,42.64725451901189 L-46.39957779989656,42.543709378816075 L-46.545492519615884,42.44529838189296 L-46.69434855692875,42.352147424571314 L-46.845955481606865,42.26437567405718 L-47.00011934423572,42.182095415984314 L-47.156642924332466,42.10541191076818 L-47.315325982648275,42.03442325894719 L-47.47596551733271,41.96922027568354 L-47.6383560236322,41.90988637458418 L-47.80228975679047,41.85649746099053 L-47.96755699781464,41.809121834873395 L-48.133946321766835,41.76782010345747 L-48.3012448682383,41.73264510368697 L-48.46923861365984,41.70364183463187 L-48.63771264510034,41.68084739992093 L-48.806451435202966,41.66429096027537 L-48.97523911790743,41.65399369620382 L-49.143859764605565,41.64996878090625 L-49.312097660376935,41.65222136342165 L-49.47973757995097,41.66074856204089 " />
			<path d="M49.47973757995099,56.25065400904645 L49.57019373186771,56.10925549303052 L49.65549558340915,55.964229089140844 L49.735534008661716,55.81576032838916 L49.81020661516711,55.664039145564246 L49.879417874912086,55.509259636250036 L49.943079246536584,55.35161980852083 L50.00110928860397,55.19132132963129 L50.05343376378829,55.028569268025294 L50.0999857338455,54.86357183099364 L50.14070564524692,54.69654009831631 L50.17554140536557,54.52768775222992 L50.20444844911782,54.35723080406595 L50.22738979597509,54.18538731790925 L50.244336097272736,54.01237713163067 L50.25526567375553,53.8384215756503 L50.260164543311745,53.66374318979143 L50.25902643886035,53.48856543858733 L50.25185281636843,53.31311242540496 L50.23865285298857,53.13760860575154 L50.21944343531864,52.962278500130566 L50.19424913779885,52.787346406814684 L50.16310219127397,52.61303611490288 L50.12604244176062,52.43957061802904 L50.08311729947264,52.26717182908812 L50.03438167816963,52.096060296344945 L49.97989792490621,51.92645492128874 L49.91973574027204,51.75857267859433 L49.85397208922441,51.592628338548394 L49.78269110262768,51.42883419229565 L49.70598396962537,51.2673997802567 L49.62394882098272,51.108531624064774 L49.53669060354882,50.9524329623644 L49.44432094599905,50.799303490810004 L49.34695801602949,50.64933910659699 L49.244726369186004,50.50273165785218 L49.13775678952142,50.35966869820416 L49.026186122284656,50.22033324684759 L48.910157098855755,50.08490355440832 L48.78981815415091,49.95355287490894 L48.66532323673093,49.82644924412641 L48.53683161185624,49.703755264625364 L48.404507657740204,49.58562789774208 L48.26852065526149,49.47221826278519 L48.12904457140455,49.36367144371008 L47.98625783670518,49.26012630351427 L47.840343116985856,49.161715306591155 L47.69148707967299,49.06856434926951 L47.539880154994876,48.98079259875537 L47.38571629236601,48.89851234068251 L47.22919271226927,48.82182883546638 L47.070509653953465,48.75084018364539 L46.90987011926903,48.685637200381734 L46.74747961296954,48.62630329928238 L46.58354587981127,48.572914385688726 L46.4182786387871,48.52553875957159 L46.251889314834905,48.48423702815566 L46.08459076836344,48.449062028385164 L45.9165970229419,48.42005875933006 L45.7481229915014,48.39726432461912 L45.579384201398774,48.38070788497357 L45.41059651869431,48.370410620902014 L45.241975871996175,48.36638570560444 L45.073737976224805,48.36863828811985 L44.90609805665077,48.37716548673908 " />

       </g>
    </g>
    <g transform="translate(20,210.0)" stroke="rgb(0,0,255)">
        <line x1="30" y1="-30" x2="75" y2="-33" stroke-width="3" stroke="#000000" />
         <text x="80" y="-30" style="stroke:#000000">X </text>

        <line x1="30" y1="-30" x2="30" y2="-75" stroke-width="3" stroke="#000000" />
         <text x="25" y="-85" style="stroke:#000000">Y </text>

        <line x1="30" y1="-30" x2="58" y2="-15" stroke-width="3" stroke="#000000" />
         <text x="65" y="-5" style="stroke:#000000">Z </text>
        <!--
            <line x1="0" y1="0" x2="0.852375176732239" y2="0" stroke-width="3" />
            <text x="0" y="20" style="stroke:#000000">1  mm </text>
        -->
    </g>
</svg>
